<?xml version="1.0" encoding="UTF-8" standalone="no"?>
<!-- Created with Inkscape (http://www.inkscape.org/) -->

<svg
   width="160.237"
   height="40.699001"
   viewBox="0 0 42.396038 10.768277"
   version="1.1"
   id="svg461"
   inkscape:version="1.2.2 (1:1.2.2+202305151914+b0a8486541)"
   sodipodi:docname="taxpasta-logo-white-pastaonly.svg"
   inkscape:export-filename="taxpasta-shortlist-noborder-objecttext.png"
   inkscape:export-xdpi="96"
   inkscape:export-ydpi="96"
   xmlns:inkscape="http://www.inkscape.org/namespaces/inkscape"
   xmlns:sodipodi="http://sodipodi.sourceforge.net/DTD/sodipodi-0.dtd"
   xmlns="http://www.w3.org/2000/svg"
   xmlns:svg="http://www.w3.org/2000/svg">
  <sodipodi:namedview
     id="namedview463"
     pagecolor="#505050"
     bordercolor="#ffffff"
     borderopacity="1"
     inkscape:showpageshadow="0"
     inkscape:pageopacity="0"
     inkscape:pagecheckerboard="1"
     inkscape:deskcolor="#505050"
     inkscape:document-units="mm"
     showgrid="false"
     inkscape:zoom="2.9006172"
     inkscape:cx="29.821239"
     inkscape:cy="25.167058"
     inkscape:window-width="1920"
     inkscape:window-height="1043"
     inkscape:window-x="0"
     inkscape:window-y="0"
     inkscape:window-maximized="1"
     inkscape:current-layer="g5593" />
  <defs
     id="defs458" />
  <g
     inkscape:label="Layer 1"
     inkscape:groupmode="layer"
     id="layer1"
     transform="translate(-87.391551,-65.646445)">
    <g
       id="g2159"
       transform="translate(10.436889,-40.216331)">
      <g
         aria-label="taxpasta"
         transform="rotate(-0.03831658)"
         id="text8784-8-9-3-9-5-9-5"
         style="font-size:11.2889px;font-family:Flamenco;-inkscape-font-specification:Flamenco;fill:#1c8f4f;stroke-width:0.113994;stroke-linecap:round;stop-color:#000000">
        <g
           id="g5593">
          <g
             id="g7460-3-1-2-7"
             transform="matrix(-1.6029804,-0.00107199,0.00107199,-1.6029804,270.88905,660.84839)"
             style="fill:#ffffff">
            <path
               style="fill:#ffffff;fill-opacity:1;stroke:none;stroke-width:0.0568557;stroke-linecap:round;stroke-dasharray:none;stop-color:#000000"
               d="m 98.358174,344.81958 c -0.742745,-0.0913 -1.794519,-0.57194 -2.294122,-1.04843 -0.185258,-0.1767 -0.262707,-0.29179 -0.262707,-0.39038 0,-0.0798 0.178603,-0.25695 0.728347,-0.72227 0.504182,-0.42679 0.709479,-0.6626 0.791302,-0.90894 0.04357,-0.13118 0.05691,-0.14688 0.09671,-0.11385 0.02539,0.0211 0.325346,0.36306 0.666565,0.75995 0.848745,0.98729 1.356292,1.54728 1.686859,1.86116 0.153462,0.14571 0.274132,0.26945 0.268172,0.27493 -0.006,0.006 -0.139461,0.0508 -0.296662,0.10058 -0.526792,0.16695 -1.013747,0.23282 -1.384461,0.18725 z"
               id="path14713-8-4-7-3" />
            <path
               style="fill:#ffffff;fill-opacity:1;stroke:none;stroke-width:0.0568557;stroke-linecap:round;stroke-dasharray:none;stop-color:#000000"
               d="m 101.69023,345.2229 c -0.3207,-0.058 -0.65827,-0.1939 -0.97444,-0.39231 -0.64553,-0.40512 -1.054174,-0.80851 -2.382772,-2.35214 -0.394463,-0.45832 -0.913493,-1.03638 -1.153401,-1.28459 -0.239904,-0.24822 -0.451849,-0.48086 -0.470982,-0.51701 -0.148319,-0.28017 0.201395,-0.33652 0.664426,-0.10708 0.245065,0.12144 0.564895,0.33535 1.391775,0.93091 0.738711,0.53206 1.138324,0.75206 1.699864,0.93583 0.54706,0.17903 1.44761,0.37158 1.46693,0.31363 0.006,-0.0188 0.18977,0.17185 0.40789,0.42339 0.52108,0.60089 0.97757,1.0702 1.29256,1.32882 0.29369,0.24114 0.3093,0.19554 -0.14372,0.41981 -0.31967,0.15827 -0.70198,0.27437 -1.04493,0.31738 -0.31338,0.0393 -0.46193,0.036 -0.7532,-0.0168 z"
               id="path14710-4-9-0-6" />
            <path
               style="fill:#ffffff;fill-opacity:1;stroke:none;stroke-width:0.0284278;stroke-linecap:round;stroke-dasharray:none;stop-color:#000000"
               d="m 105.96295,345.44059 c -0.78195,-0.0462 -1.54637,-0.40728 -2.33755,-1.10418 -0.37822,-0.33313 -0.78456,-0.76581 -1.46784,-1.56303 -0.46638,-0.54413 -0.62268,-0.72171 -0.94673,-1.07555 -0.51774,-0.56538 -0.54871,-0.59275 -0.58773,-0.51986 -0.0182,0.034 -0.0153,0.0375 0.46767,0.56025 0.32347,0.35006 0.81148,0.90386 0.80352,0.91183 -0.0169,0.017 -0.84185,-0.16327 -1.1584,-0.25304 -0.59016,-0.16738 -1.013766,-0.37645 -1.636346,-0.80768 -0.113764,-0.0788 -0.206842,-0.14769 -0.206842,-0.15309 0,-0.0157 0.253822,-0.26053 0.358911,-0.34628 0.23428,-0.19116 0.540155,-0.36529 0.784367,-0.4465 0.11487,-0.0382 0.14849,-0.0425 0.33094,-0.0427 0.19222,-1.5e-4 0.20982,0.003 0.32898,0.0479 0.20326,0.0775 0.35519,0.1671 0.91208,0.53787 0.77604,0.51665 0.98106,0.62778 2.13612,1.15806 0.83427,0.38302 1.41162,0.65451 2.53996,1.19435 0.50341,0.24086 0.92736,0.43793 0.94211,0.43793 0.0402,0 0.0657,-0.0376 0.0478,-0.0705 -0.0202,-0.0371 -2.01533,-0.99094 -3.45471,-1.65158 -0.34749,-0.15949 -0.75853,-0.35268 -0.91342,-0.4293 l -0.28161,-0.1393 0.0282,-0.0393 c 0.0546,-0.076 0.49132,-0.49336 0.61771,-0.59033 0.25159,-0.19304 0.47811,-0.31328 0.72202,-0.38325 0.12363,-0.0355 0.15618,-0.0389 0.30612,-0.0321 0.31961,0.0145 0.4966,0.10385 1.27345,0.64268 0.65888,0.45698 0.95521,0.64332 1.42158,0.89394 0.59485,0.31967 1.10528,0.49684 1.65474,0.57438 l 0.18051,0.0255 0.23575,0.47545 c 0.19749,0.3983 0.34434,0.67478 0.51824,0.97567 l 0.0283,0.0489 -0.0451,0.0378 c -0.2672,0.22391 -0.76972,0.47278 -1.42158,0.70408 -0.67823,0.24065 -1.25844,0.3782 -1.75252,0.41547 -0.20379,0.0152 -0.25201,0.016 -0.42873,0.006 z"
               id="path14707-3-2-9-1" />
            <path
               style="fill:#ffffff;fill-opacity:1;stroke:none;stroke-width:0.0284278;stroke-linecap:round;stroke-dasharray:none;stop-color:#000000"
               d="m 107.80573,342.42801 c -0.18956,-0.0721 -0.38002,-0.15642 -0.57876,-0.25615 -0.17718,-0.0889 -0.42269,-0.2229 -0.44241,-0.24142 -0.0167,-0.0157 0.46639,-0.69853 0.67673,-0.95661 0.0139,-0.017 0.0298,-0.0165 0.0978,0.004 0.19403,0.057 0.37782,0.19483 0.52955,0.39705 0.06,0.08 0.21525,0.3355 0.27192,0.44757 l 0.04,0.079 -0.20536,0.27448 c -0.11294,0.15099 -0.21292,0.28244 -0.22216,0.29216 -0.0128,0.0134 -0.0529,0.004 -0.16724,-0.0396 z"
               id="path14704-3-0-3-2" />
            <path
               style="fill:#ffffff;fill-opacity:1;stroke:none;stroke-width:0.0284278;stroke-linecap:round;stroke-dasharray:none;stop-color:#000000"
               d="m 110.99487,345.38401 c -0.52354,-0.13726 -0.92721,-0.53505 -1.42036,-1.39966 -0.14477,-0.2538 -0.51354,-0.98343 -0.75272,-1.48925 -0.28515,-0.60305 -0.49482,-0.9899 -0.6501,-1.1994 -0.14894,-0.20097 -0.33925,-0.34699 -0.5351,-0.41057 l -0.0789,-0.0256 0.0488,-0.0622 c 0.0968,-0.12323 0.36703,-0.38015 0.47605,-0.45252 0.28345,-0.18821 0.54526,-0.21886 0.85325,-0.0999 0.18827,0.0727 0.30281,0.14808 0.45915,0.30209 0.2591,0.25521 0.41061,0.52743 0.97543,1.75251 0.67225,1.45812 0.91007,1.88361 1.23291,2.20596 0.14128,0.14105 0.32769,0.27128 0.50054,0.34969 0.0921,0.0418 0.32359,0.13066 0.4025,0.15456 0.0263,0.008 -0.0578,0.0554 -0.29331,0.16546 -0.48755,0.22784 -0.8854,0.29604 -1.21815,0.20881 z"
               id="path14701-3-6-6-9" />
            <path
               style="fill:#ffffff;fill-opacity:1;stroke:none;stroke-width:0.0284278;stroke-linecap:round;stroke-dasharray:none;stop-color:#000000"
               d="m 110.8548,343.07049 c -0.0755,-0.15926 -0.21076,-0.44866 -0.30049,-0.64309 l -0.16313,-0.35353 0.15771,-0.2181 c 0.21351,-0.29531 0.5623,-0.76259 0.68079,-0.91206 l 0.0969,-0.12229 0.0828,0.0256 c 0.2941,0.091 0.49567,0.29845 0.76182,0.78403 l 0.0983,0.17943 -0.10743,0.11666 c -0.54009,0.5865 -0.71483,0.80181 -1.06834,1.31634 -0.0441,0.0641 -0.0849,0.11658 -0.0909,0.11658 -0.006,0 -0.0726,-0.13031 -0.14812,-0.28957 z"
               id="path14698-3-8-0-3" />
            <path
               style="fill:#ffffff;fill-opacity:1;stroke:none;stroke-width:0.0284278;stroke-linecap:round;stroke-dasharray:none;stop-color:#000000"
               d="m 112.44653,344.87098 c -0.35127,-0.12531 -0.57412,-0.25387 -0.75023,-0.43275 -0.0956,-0.0971 -0.0958,-0.0974 -0.0602,-0.11602 0.0807,-0.0423 0.31383,-0.2056 0.41928,-0.29376 0.20159,-0.16853 0.35342,-0.33943 0.63521,-0.71497 l 0.18734,-0.24966 0.13187,0.26471 c 0.13103,0.26298 0.3228,0.61593 0.4314,0.79394 l 0.0567,0.093 -0.0322,0.0424 c -0.10892,0.14328 -0.24432,0.29219 -0.34227,0.37645 -0.12469,0.10725 -0.42784,0.30571 -0.46514,0.30452 -0.0131,0 -0.10838,-0.031 -0.2118,-0.0679 z"
               id="path14695-2-9-6-1" />
            <path
               style="fill:#ffffff;fill-opacity:1;stroke:none;stroke-width:0.0284278;stroke-linecap:round;stroke-dasharray:none;stop-color:#000000"
               d="m 114.9136,345.27876 c -0.19062,-0.0411 -0.37655,-0.12206 -0.54908,-0.23898 -0.117,-0.0793 -0.34611,-0.30099 -0.46891,-0.4537 -0.28383,-0.35301 -0.66269,-1.02256 -1.08953,-1.92553 -0.22564,-0.47733 -0.50423,-1.03521 -0.60094,-1.20343 -0.19283,-0.3354 -0.39169,-0.55028 -0.60464,-0.65334 -0.0695,-0.0337 -0.1374,-0.0612 -0.15079,-0.0612 -0.0134,0 -0.028,-0.006 -0.0324,-0.0132 -0.012,-0.0195 0.33822,-0.38 0.45468,-0.46805 0.32017,-0.24202 0.62725,-0.27427 0.99343,-0.10428 0.31946,0.14833 0.5243,0.36783 0.78495,0.84114 0.11427,0.20752 0.23439,0.45777 0.57407,1.19595 0.50268,1.0924 0.74858,1.56821 0.97956,1.89541 0.2599,0.36818 0.5367,0.57088 1.00502,0.73592 l 0.17944,0.0632 -0.23723,0.1143 c -0.28611,0.13785 -0.43624,0.19555 -0.63994,0.24599 -0.19218,0.0476 -0.45438,0.0606 -0.59765,0.0297 z"
               id="path14692-9-2-2-9" />
            <path
               style="fill:#ffffff;fill-opacity:1;stroke:none;stroke-width:0.0284278;stroke-linecap:round;stroke-dasharray:none;stop-color:#000000"
               d="m 114.71424,342.97271 c -0.14338,-0.29686 -0.49263,-1.0527 -0.49263,-1.06617 0,-0.0201 0.64168,-0.79494 0.7949,-0.95991 l 0.069,-0.0742 0.11924,0.0246 c 0.0656,0.0134 0.17,0.0488 0.23203,0.0782 0.19117,0.0908 0.3858,0.31324 0.56826,0.64955 l 0.0584,0.10758 -0.15865,0.17073 c -0.3516,0.37835 -0.66633,0.77299 -0.93094,1.16728 -0.0621,0.0925 -0.11682,0.16837 -0.1217,0.1687 -0.005,0 -0.0669,-0.11958 -0.13783,-0.26644 z"
               id="path14689-8-6-6-4" />
            <path
               style="fill:#ffffff;fill-opacity:1;stroke:none;stroke-width:0.0284278;stroke-linecap:round;stroke-dasharray:none;stop-color:#000000"
               d="m 118.82571,345.3595 c -0.1407,-0.0183 -0.29146,-0.0675 -0.43716,-0.14297 -0.588,-0.30447 -1.06166,-1.01175 -1.87288,-2.79666 -0.37186,-0.81821 -0.56076,-1.15071 -0.77352,-1.36155 -0.12975,-0.12859 -0.26698,-0.20831 -0.42991,-0.24977 -0.0579,-0.0147 -0.1106,-0.0311 -0.11706,-0.0363 -0.0148,-0.0119 0.20065,-0.21975 0.35517,-0.34255 0.32468,-0.25801 0.61804,-0.3478 0.9219,-0.28219 0.16189,0.035 0.39462,0.15008 0.52459,0.25948 0.3009,0.25332 0.47022,0.5485 1.10288,1.92266 0.48388,1.051 0.64577,1.36921 0.86858,1.70738 0.20704,0.31423 0.37156,0.48661 0.61493,0.6443 0.12389,0.0803 0.37152,0.1929 0.55408,0.25197 0.0724,0.0233 0.13162,0.0463 0.13162,0.0508 -1e-5,0.0102 -0.37386,0.16532 -0.56523,0.23461 -0.18345,0.0664 -0.40219,0.12133 -0.5626,0.1413 -0.14189,0.0178 -0.17558,0.0175 -0.31539,0 z"
               id="path14686-1-6-1-7" />
            <path
               style="fill:#ffffff;fill-opacity:1;stroke:none;stroke-width:0.0284278;stroke-linecap:round;stroke-dasharray:none;stop-color:#000000"
               d="m 116.28252,344.73075 c -0.3645,-0.12884 -0.53426,-0.22376 -0.7243,-0.40499 l -0.10893,-0.10388 0.15712,-0.10182 c 0.0864,-0.056 0.21128,-0.14411 0.27747,-0.19579 0.15853,-0.12385 0.44243,-0.41816 0.64108,-0.66458 l 0.15971,-0.19813 0.1513,0.30345 c 0.13671,0.27415 0.36332,0.69312 0.42966,0.79438 l 0.0259,0.0395 -0.11635,0.12369 c -0.064,0.068 -0.17086,0.16611 -0.23747,0.21794 -0.15428,0.12012 -0.38592,0.26398 -0.42329,0.26288 -0.0158,0 -0.12016,-0.0331 -0.23185,-0.0726 z"
               id="path14683-3-4-8-8" />
            <path
               style="fill:#ffffff;fill-opacity:1;stroke:none;stroke-width:0.0284278;stroke-linecap:round;stroke-dasharray:none;stop-color:#000000"
               d="m 118.50217,342.92848 c -0.0308,-0.0646 -0.17152,-0.36721 -0.31263,-0.67241 l -0.25656,-0.55492 0.0357,-0.0269 c 0.0772,-0.0582 0.19918,-0.12496 0.29587,-0.16185 0.0905,-0.0345 0.12251,-0.0386 0.29697,-0.0382 0.14218,0 0.23869,0.01 0.35352,0.0337 0.14315,0.0301 0.70619,0.17999 0.72048,0.19187 0.003,0.003 -0.0611,0.0762 -0.14291,0.1634 -0.33306,0.35465 -0.50299,0.5646 -0.77326,0.95539 -0.0772,0.11169 -0.14511,0.20856 -0.1508,0.21526 -0.006,0.007 -0.0356,-0.0407 -0.0664,-0.1053 z"
               id="path14680-3-9-7-4" />
          </g>
        </g>
      </g>
    </g>
  </g>
</svg>
