<?xml version="1.0" encoding="UTF-8" standalone="no"?><svg xmlns="http://www.w3.org/2000/svg" xmlns:xlink="http://www.w3.org/1999/xlink" contentStyleType="text/css" height="456px" preserveAspectRatio="none" style="width:2186px;height:456px;background:#FFFFFF;" version="1.1" viewBox="0 0 2186 456" width="2186px" zoomAndPan="magnify"><defs/><g><!--MD5=[3ff016c1aa5003d713567a073e2181a6]
cluster application--><g id="cluster_application"><path d="M8.5,165 L97.5,165 A3.75,3.75 0 0 1 100,167.5 L107,187.2969 L872.5,187.2969 A2.5,2.5 0 0 1 875,189.7969 L875,297.5 A2.5,2.5 0 0 1 872.5,300 L8.5,300 A2.5,2.5 0 0 1 6,297.5 L6,167.5 A2.5,2.5 0 0 1 8.5,165 " style="stroke:#000000;stroke-width:1.5;fill:none;"/><line style="stroke:#000000;stroke-width:1.5;fill:none;" x1="6" x2="107" y1="187.2969" y2="187.2969"/><text fill="#000000" font-family="sans-serif" font-size="14" font-weight="bold" lengthAdjust="spacing" textLength="88" x="10" y="179.9951">application</text></g><!--MD5=[24efc4a8de44de147e7e3265cd272a5f]
cluster infrastructure.application--><g id="cluster_infrastructure.application"><path d="M901.5,6 L1106.5,6 A3.75,3.75 0 0 1 1109,8.5 L1116,28.2969 L1701.5,28.2969 A2.5,2.5 0 0 1 1704,30.7969 L1704,297.5 A2.5,2.5 0 0 1 1701.5,300 L901.5,300 A2.5,2.5 0 0 1 899,297.5 L899,8.5 A2.5,2.5 0 0 1 901.5,6 " style="stroke:#000000;stroke-width:1.5;fill:none;"/><line style="stroke:#000000;stroke-width:1.5;fill:none;" x1="899" x2="1116" y1="28.2969" y2="28.2969"/><text fill="#000000" font-family="sans-serif" font-size="14" font-weight="bold" lengthAdjust="spacing" textLength="204" x="903" y="20.9951">infrastructure.application</text></g><!--MD5=[27f772719433d509ddbc20ff768eba08]
cluster domain--><g id="cluster_domain"><path d="M267.5,6 L327.5,6 A3.75,3.75 0 0 1 330,8.5 L337,28.2969 L436.5,28.2969 A2.5,2.5 0 0 1 439,30.7969 L439,113.5 A2.5,2.5 0 0 1 436.5,116 L267.5,116 A2.5,2.5 0 0 1 265,113.5 L265,8.5 A2.5,2.5 0 0 1 267.5,6 " style="stroke:#000000;stroke-width:1.5;fill:none;"/><line style="stroke:#000000;stroke-width:1.5;fill:none;" x1="265" x2="337" y1="28.2969" y2="28.2969"/><text fill="#000000" font-family="sans-serif" font-size="14" font-weight="bold" lengthAdjust="spacing" textLength="59" x="269" y="20.9951">domain</text></g><!--MD5=[b721fedbe164ad06677e97a10d644b97]
cluster tests/data/--><g id="cluster_tests/data/"><path d="M1790.5,174.5 L1876.5,174.5 A3.75,3.75 0 0 1 1879,177 L1886,196.7969 L1915.5,196.7969 A2.5,2.5 0 0 1 1918,199.2969 L1918,288 A2.5,2.5 0 0 1 1915.5,290.5 L1790.5,290.5 A2.5,2.5 0 0 1 1788,288 L1788,177 A2.5,2.5 0 0 1 1790.5,174.5 " style="stroke:#000000;stroke-width:1.5;fill:none;"/><line style="stroke:#000000;stroke-width:1.5;fill:none;" x1="1788" x2="1886" y1="196.7969" y2="196.7969"/><text fill="#000000" font-family="sans-serif" font-size="14" font-weight="bold" lengthAdjust="spacing" textLength="85" x="1792" y="189.4951">tests/data/</text></g><!--MD5=[77e873edfe72fc8ac4354afe587e8269]
cluster tests/unit/infrastructure/application/--><g id="cluster_tests/unit/infrastructure/application/"><path d="M1649.5,333 L1941.5,333 A3.75,3.75 0 0 1 1944,335.5 L1951,355.2969 L2176.5,355.2969 A2.5,2.5 0 0 1 2179,357.7969 L2179,446.5 A2.5,2.5 0 0 1 2176.5,449 L1649.5,449 A2.5,2.5 0 0 1 1647,446.5 L1647,335.5 A2.5,2.5 0 0 1 1649.5,333 " style="stroke:#000000;stroke-width:1.5;fill:none;"/><line style="stroke:#000000;stroke-width:1.5;fill:none;" x1="1647" x2="1951" y1="355.2969" y2="355.2969"/><text fill="#000000" font-family="sans-serif" font-size="14" font-weight="bold" lengthAdjust="spacing" textLength="291" x="1651" y="347.9951">tests/unit/infrastructure/application/</text></g><!--MD5=[927008e3e5a404a53f7dfc0cd1fbbc9e]
cluster tests/integration/--><g id="cluster_tests/integration/"><path d="M1417.5,333 L1558.5,333 A3.75,3.75 0 0 1 1561,335.5 L1568,355.2969 L1620.5,355.2969 A2.5,2.5 0 0 1 1623,357.7969 L1623,446.5 A2.5,2.5 0 0 1 1620.5,449 L1417.5,449 A2.5,2.5 0 0 1 1415,446.5 L1415,335.5 A2.5,2.5 0 0 1 1417.5,333 " style="stroke:#000000;stroke-width:1.5;fill:none;"/><line style="stroke:#000000;stroke-width:1.5;fill:none;" x1="1415" x2="1568" y1="355.2969" y2="355.2969"/><text fill="#000000" font-family="sans-serif" font-size="14" font-weight="bold" lengthAdjust="spacing" textLength="140" x="1419" y="347.9951">tests/integration/</text></g><!--MD5=[54b83b5bca36b8ced2064f4861d8dc98]
class application.ProfileReader--><g id="elem_application.ProfileReader"><rect codeLine="6" fill="#F1F1F1" height="64.5625" id="application.ProfileReader" rx="2.5" ry="2.5" style="stroke:#181818;stroke-width:0.5;" width="369" x="489.5" y="219"/><ellipse cx="621.25" cy="239.1328" fill="#A9DCDF" rx="11" ry="11" style="stroke:#181818;stroke-width:1.0;"/><path d="M621.3594,234.4297 L620.2031,239.7578 L622.5313,239.7578 L621.3594,234.4297 Z M619.875,231.8828 L622.8594,231.8828 L626.2188,244.8828 L623.7656,244.8828 L623,241.8828 L619.7188,241.8828 L618.9688,244.8828 L616.5313,244.8828 L619.875,231.8828 Z " fill="#000000"/><text fill="#000000" font-family="sans-serif" font-size="12" font-style="italic" lengthAdjust="spacing" textLength="58" x="661.25" y="235.1387">«Service»</text><text fill="#000000" font-family="sans-serif" font-size="14" font-style="italic" lengthAdjust="spacing" textLength="97" x="641.75" y="250.9639">ProfileReader</text><line style="stroke:#181818;stroke-width:0.5;" x1="490.5" x2="857.5" y1="259.2656" y2="259.2656"/><ellipse cx="500.5" cy="270.2656" fill="#84BE84" rx="3" ry="3" style="stroke:#038048;stroke-width:1.0;"/><text fill="#000000" font-family="sans-serif" font-size="14" font-style="italic" lengthAdjust="spacing" text-decoration="underline" textLength="343" x="509.5" y="276.2607">read(profile: pathlib.Path) -&gt; pandas.DataFrame</text></g><!--MD5=[45457ff0917d19a7fadf5961922dd638]
class application.ProfileStandardisationService--><g id="elem_application.ProfileStandardisationService"><rect codeLine="15" fill="#F1F1F1" height="64.5625" id="application.ProfileStandardisationService" rx="2.5" ry="2.5" style="stroke:#181818;stroke-width:0.5;" width="432" x="22" y="219"/><ellipse cx="128.75" cy="239.1328" fill="#A9DCDF" rx="11" ry="11" style="stroke:#181818;stroke-width:1.0;"/><path d="M128.8594,234.4297 L127.7031,239.7578 L130.0313,239.7578 L128.8594,234.4297 Z M127.375,231.8828 L130.3594,231.8828 L133.7188,244.8828 L131.2656,244.8828 L130.5,241.8828 L127.2188,241.8828 L126.4688,244.8828 L124.0313,244.8828 L127.375,231.8828 Z " fill="#000000"/><text fill="#000000" font-family="sans-serif" font-size="12" font-style="italic" lengthAdjust="spacing" textLength="58" x="225.25" y="235.1387">«Service»</text><text fill="#000000" font-family="sans-serif" font-size="14" font-style="italic" lengthAdjust="spacing" textLength="210" x="149.25" y="250.9639">ProfileStandardisationService</text><line style="stroke:#181818;stroke-width:0.5;" x1="23" x2="453" y1="259.2656" y2="259.2656"/><ellipse cx="33" cy="270.2656" fill="#84BE84" rx="3" ry="3" style="stroke:#038048;stroke-width:1.0;"/><text fill="#000000" font-family="sans-serif" font-size="14" font-style="italic" lengthAdjust="spacing" text-decoration="underline" textLength="406" x="42" y="276.2607">transform(profile: pandas.DataFrame) -&gt; StandardProfile</text></g><!--MD5=[e1d62640c486d0a5689591817270ed0c]
class infrastructure.application.Kraken2ProfileReader--><g id="elem_infrastructure.application.Kraken2ProfileReader"><rect codeLine="9" fill="#F1F1F1" height="64.5625" id="infrastructure.application.Kraken2ProfileReader" rx="2.5" ry="2.5" style="stroke:#181818;stroke-width:0.5;" width="337" x="1350.5" y="219"/><ellipse cx="1436.75" cy="239.1328" fill="#ADD1B2" rx="11" ry="11" style="stroke:#181818;stroke-width:1.0;"/><path d="M1439.2188,245.0078 Q1438.6406,245.3203 1438,245.4766 Q1437.3594,245.6328 1436.6563,245.6328 Q1434.1563,245.6328 1432.8281,243.9609 Q1431.5156,242.2891 1431.5156,239.1328 Q1431.5156,235.9766 1432.8281,234.3047 Q1434.1563,232.6328 1436.6563,232.6328 Q1437.3594,232.6328 1438,232.7891 Q1438.6563,232.9453 1439.2188,233.2578 L1439.2188,236.0547 Q1438.5938,235.4922 1438,235.2266 Q1437.4063,234.9453 1436.7813,234.9453 Q1435.4375,234.9453 1434.75,236.0078 Q1434.0625,237.0703 1434.0625,239.1328 Q1434.0625,241.2109 1434.75,242.2734 Q1435.4375,243.3203 1436.7813,243.3203 Q1437.4063,243.3203 1438,243.0547 Q1438.5938,242.7891 1439.2188,242.2109 L1439.2188,245.0078 Z " fill="#000000"/><text fill="#000000" font-family="sans-serif" font-size="12" font-style="italic" lengthAdjust="spacing" textLength="58" x="1506.25" y="235.1387">«Service»</text><text fill="#000000" font-family="sans-serif" font-size="14" lengthAdjust="spacing" textLength="156" x="1457.25" y="250.9639">Kraken2ProfileReader</text><line style="stroke:#181818;stroke-width:0.5;" x1="1351.5" x2="1686.5" y1="259.2656" y2="259.2656"/><ellipse cx="1361.5" cy="270.2656" fill="#84BE84" rx="3" ry="3" style="stroke:#038048;stroke-width:1.0;"/><text fill="#000000" font-family="sans-serif" font-size="14" lengthAdjust="spacing" text-decoration="underline" textLength="311" x="1370.5" y="276.2607">read(profile: pathlib.Path) -&gt; Kraken2Profile</text></g><!--MD5=[c61b4adbc381c7fe086c48be1c633be0]
class infrastructure.application.Kraken2ProfileStandardisationService--><g id="elem_infrastructure.application.Kraken2ProfileStandardisationService"><rect codeLine="18" fill="#F1F1F1" height="64.5625" id="infrastructure.application.Kraken2ProfileStandardisationService" rx="2.5" ry="2.5" style="stroke:#181818;stroke-width:0.5;" width="400" x="915" y="219"/><ellipse cx="976.25" cy="239.1328" fill="#ADD1B2" rx="11" ry="11" style="stroke:#181818;stroke-width:1.0;"/><path d="M978.7188,245.0078 Q978.1406,245.3203 977.5,245.4766 Q976.8594,245.6328 976.1563,245.6328 Q973.6563,245.6328 972.3281,243.9609 Q971.0156,242.2891 971.0156,239.1328 Q971.0156,235.9766 972.3281,234.3047 Q973.6563,232.6328 976.1563,232.6328 Q976.8594,232.6328 977.5,232.7891 Q978.1563,232.9453 978.7188,233.2578 L978.7188,236.0547 Q978.0938,235.4922 977.5,235.2266 Q976.9063,234.9453 976.2813,234.9453 Q974.9375,234.9453 974.25,236.0078 Q973.5625,237.0703 973.5625,239.1328 Q973.5625,241.2109 974.25,242.2734 Q974.9375,243.3203 976.2813,243.3203 Q976.9063,243.3203 977.5,243.0547 Q978.0938,242.7891 978.7188,242.2109 L978.7188,245.0078 Z " fill="#000000"/><text fill="#000000" font-family="sans-serif" font-size="12" font-style="italic" lengthAdjust="spacing" textLength="58" x="1102.25" y="235.1387">«Service»</text><text fill="#000000" font-family="sans-serif" font-size="14" lengthAdjust="spacing" textLength="269" x="996.75" y="250.9639">Kraken2ProfileStandardisationService</text><line style="stroke:#181818;stroke-width:0.5;" x1="916" x2="1314" y1="259.2656" y2="259.2656"/><ellipse cx="926" cy="270.2656" fill="#84BE84" rx="3" ry="3" style="stroke:#038048;stroke-width:1.0;"/><text fill="#000000" font-family="sans-serif" font-size="14" lengthAdjust="spacing" text-decoration="underline" textLength="374" x="935" y="276.2607">transform(profile: Kraken2Profile) -&gt; StandardProfile</text></g><!--MD5=[ed74f991d02c94fe560cb53d9cf7013e]
class infrastructure.application.Kraken2Profile--><g id="elem_infrastructure.application.Kraken2Profile"><rect codeLine="24" fill="#F1F1F1" height="40.2656" id="infrastructure.application.Kraken2Profile" rx="2.5" ry="2.5" style="stroke:#181818;stroke-width:0.5;" width="136" x="1502" y="60"/><ellipse cx="1517" cy="80.1328" fill="#ADD1B2" rx="11" ry="11" style="stroke:#181818;stroke-width:1.0;"/><path d="M1519.4688,86.0078 Q1518.8906,86.3203 1518.25,86.4766 Q1517.6094,86.6328 1516.9063,86.6328 Q1514.4063,86.6328 1513.0781,84.9609 Q1511.7656,83.2891 1511.7656,80.1328 Q1511.7656,76.9766 1513.0781,75.3047 Q1514.4063,73.6328 1516.9063,73.6328 Q1517.6094,73.6328 1518.25,73.7891 Q1518.9063,73.9453 1519.4688,74.2578 L1519.4688,77.0547 Q1518.8438,76.4922 1518.25,76.2266 Q1517.6563,75.9453 1517.0313,75.9453 Q1515.6875,75.9453 1515,77.0078 Q1514.3125,78.0703 1514.3125,80.1328 Q1514.3125,82.2109 1515,83.2734 Q1515.6875,84.3203 1517.0313,84.3203 Q1517.6563,84.3203 1518.25,84.0547 Q1518.8438,83.7891 1519.4688,83.2109 L1519.4688,86.0078 Z " fill="#000000"/><text fill="#000000" font-family="sans-serif" font-size="12" font-style="italic" lengthAdjust="spacing" textLength="98" x="1534" y="76.1387">«SchemaModel»</text><text fill="#000000" font-family="sans-serif" font-size="14" lengthAdjust="spacing" textLength="104" x="1531" y="91.9639">Kraken2Profile</text></g><!--MD5=[018542041a490ed3d7ed58517813c77c]
class domain.StandardProfile--><g id="elem_domain.StandardProfile"><rect codeLine="23" fill="#F1F1F1" height="40.2656" id="domain.StandardProfile" rx="2.5" ry="2.5" style="stroke:#181818;stroke-width:0.5;" width="142" x="281" y="60"/><ellipse cx="296" cy="80.1328" fill="#ADD1B2" rx="11" ry="11" style="stroke:#181818;stroke-width:1.0;"/><path d="M298.4688,86.0078 Q297.8906,86.3203 297.25,86.4766 Q296.6094,86.6328 295.9063,86.6328 Q293.4063,86.6328 292.0781,84.9609 Q290.7656,83.2891 290.7656,80.1328 Q290.7656,76.9766 292.0781,75.3047 Q293.4063,73.6328 295.9063,73.6328 Q296.6094,73.6328 297.25,73.7891 Q297.9063,73.9453 298.4688,74.2578 L298.4688,77.0547 Q297.8438,76.4922 297.25,76.2266 Q296.6563,75.9453 296.0313,75.9453 Q294.6875,75.9453 294,77.0078 Q293.3125,78.0703 293.3125,80.1328 Q293.3125,82.2109 294,83.2734 Q294.6875,84.3203 296.0313,84.3203 Q296.6563,84.3203 297.25,84.0547 Q297.8438,83.7891 298.4688,83.2109 L298.4688,86.0078 Z " fill="#000000"/><text fill="#000000" font-family="sans-serif" font-size="12" font-style="italic" lengthAdjust="spacing" textLength="98" x="316" y="76.1387">«SchemaModel»</text><text fill="#000000" font-family="sans-serif" font-size="14" lengthAdjust="spacing" textLength="110" x="310" y="91.9639">StandardProfile</text></g><!--MD5=[41c001072bc432ebba84316bbb5cb276]
entity kraken2--><g id="elem_kraken2"><rect fill="#F1F1F1" height="46.2969" rx="2.5" ry="2.5" style="stroke:#181818;stroke-width:0.5;" width="98" x="1804" y="228.5"/><rect fill="#F1F1F1" height="10" style="stroke:#181818;stroke-width:0.5;" width="15" x="1882" y="233.5"/><rect fill="#F1F1F1" height="2" style="stroke:#181818;stroke-width:0.5;" width="4" x="1880" y="235.5"/><rect fill="#F1F1F1" height="2" style="stroke:#181818;stroke-width:0.5;" width="4" x="1880" y="239.5"/><text fill="#000000" font-family="sans-serif" font-size="14" lengthAdjust="spacing" textLength="58" x="1819" y="261.4951">kraken2</text></g><!--MD5=[126cdf0273012b0100d2b2ffee2608ae]
entity test_kraken2_profile.py--><g id="elem_test_kraken2_profile.py"><rect fill="#F1F1F1" height="46.2969" rx="2.5" ry="2.5" style="stroke:#181818;stroke-width:0.5;" width="205" x="1958.5" y="387"/><rect fill="#F1F1F1" height="10" style="stroke:#181818;stroke-width:0.5;" width="15" x="2143.5" y="392"/><rect fill="#F1F1F1" height="2" style="stroke:#181818;stroke-width:0.5;" width="4" x="2141.5" y="394"/><rect fill="#F1F1F1" height="2" style="stroke:#181818;stroke-width:0.5;" width="4" x="2141.5" y="398"/><text fill="#000000" font-family="sans-serif" font-size="14" lengthAdjust="spacing" textLength="165" x="1973.5" y="419.9951">test_kraken2_profile.py</text></g><!--MD5=[9e67b87e3a63fd5d60a186c13a3c6103]
entity test_kraken2_profile_reader.py--><g id="elem_test_kraken2_profile_reader.py"><rect fill="#F1F1F1" height="46.2969" rx="2.5" ry="2.5" style="stroke:#181818;stroke-width:0.5;" width="260" x="1663" y="387"/><rect fill="#F1F1F1" height="10" style="stroke:#181818;stroke-width:0.5;" width="15" x="1903" y="392"/><rect fill="#F1F1F1" height="2" style="stroke:#181818;stroke-width:0.5;" width="4" x="1901" y="394"/><rect fill="#F1F1F1" height="2" style="stroke:#181818;stroke-width:0.5;" width="4" x="1901" y="398"/><text fill="#000000" font-family="sans-serif" font-size="14" lengthAdjust="spacing" textLength="220" x="1678" y="419.9951">test_kraken2_profile_reader.py</text></g><!--MD5=[0e1b77514311491a8870cac6ea30bcd8]
entity test_kraken2_etl.py--><g id="elem_test_kraken2_etl.py"><rect fill="#F1F1F1" height="46.2969" rx="2.5" ry="2.5" style="stroke:#181818;stroke-width:0.5;" width="177" x="1430.5" y="387"/><rect fill="#F1F1F1" height="10" style="stroke:#181818;stroke-width:0.5;" width="15" x="1587.5" y="392"/><rect fill="#F1F1F1" height="2" style="stroke:#181818;stroke-width:0.5;" width="4" x="1585.5" y="394"/><rect fill="#F1F1F1" height="2" style="stroke:#181818;stroke-width:0.5;" width="4" x="1585.5" y="398"/><text fill="#000000" font-family="sans-serif" font-size="14" lengthAdjust="spacing" textLength="137" x="1445.5" y="419.9951">test_kraken2_etl.py</text></g><!--MD5=[f4720d8779bae674bd9aab653b8424b3]
reverse link application.ProfileReader to infrastructure.application.Kraken2ProfileReader--><g id="link_application.ProfileReader_infrastructure.application.Kraken2ProfileReader"><path codeLine="12" d="M752.26,209.95 C794.47,189.81 848.19,167.7 899,157 C1015.8,132.41 1265.6,140.75 1333,157 C1382.82,169.01 1434.4,196.62 1470.56,218.91 " fill="none" id="application.ProfileReader-backto-infrastructure.application.Kraken2ProfileReader" style="stroke:#181818;stroke-width:1.0;stroke-dasharray:7.0,7.0;"/><polygon fill="none" points="755.07,216.37,734.03,218.87,748.92,203.8,755.07,216.37" style="stroke:#181818;stroke-width:1.0;"/><text fill="#000000" font-family="sans-serif" font-size="13" lengthAdjust="spacing" textLength="51" x="957.5" y="145.0669">realizes</text></g><!--MD5=[fbab85c930c4c0be60af4ddad2cd02e4]
reverse link application.ProfileStandardisationService to infrastructure.application.Kraken2ProfileStandardisationService--><g id="link_application.ProfileStandardisationService_infrastructure.application.Kraken2ProfileStandardisationService"><path codeLine="21" d="M318.17,210.35 C362.31,189.97 418.78,167.52 472,157 C559.86,139.63 787.06,140.08 875,157 C937.22,168.97 1003.98,196.58 1051.26,218.88 " fill="none" id="application.ProfileStandardisationService-backto-infrastructure.application.Kraken2ProfileStandardisationService" style="stroke:#181818;stroke-width:1.0;stroke-dasharray:7.0,7.0;"/><polygon fill="none" points="321.13,216.69,300.06,218.91,315.15,204.03,321.13,216.69" style="stroke:#181818;stroke-width:1.0;"/><text fill="#000000" font-family="sans-serif" font-size="13" lengthAdjust="spacing" textLength="51" x="627.5" y="145.0669">realizes</text></g><!--MD5=[ed1fccdeca0189f87c8f7fd967529c92]
reverse link infrastructure.application.Kraken2Profile to infrastructure.application.Kraken2ProfileReader--><g id="link_infrastructure.application.Kraken2Profile_infrastructure.application.Kraken2ProfileReader"><path codeLine="26" d="M1562.76,105.07 C1553.78,134.89 1538.47,185.8 1528.54,218.78 " fill="none" id="infrastructure.application.Kraken2Profile-backto-infrastructure.application.Kraken2ProfileReader" style="stroke:#181818;stroke-width:1.0;stroke-dasharray:7.0,7.0;"/><polygon fill="#181818" points="1564.25,100.11,1557.8223,107.5723,1562.8067,104.8972,1565.4818,109.8815,1564.25,100.11" style="stroke:#181818;stroke-width:1.0;"/></g><!--MD5=[63ff4aa245cae9ff81cf4afd17937837]
reverse link infrastructure.application.Kraken2Profile to infrastructure.application.Kraken2ProfileStandardisationService--><g id="link_infrastructure.application.Kraken2Profile_infrastructure.application.Kraken2ProfileStandardisationService"><path codeLine="27" d="M1500.22,101.47 C1452.69,115.88 1388.56,136.23 1333,157 C1282.47,175.89 1226.57,199.93 1184.03,218.9 " fill="none" id="infrastructure.application.Kraken2Profile-backto-infrastructure.application.Kraken2ProfileStandardisationService" style="stroke:#181818;stroke-width:1.0;stroke-dasharray:7.0,7.0;"/><polygon fill="#181818" points="1505.06,100.01,1495.2851,98.8049,1500.2768,101.4664,1497.6153,106.458,1505.06,100.01" style="stroke:#181818;stroke-width:1.0;"/></g><!--MD5=[bdcebefc4abbf7c77fbad4a99a67bdd2]
reverse link domain.StandardProfile to application.ProfileStandardisationService--><g id="link_domain.StandardProfile_application.ProfileStandardisationService"><path codeLine="29" d="M336.3,104.34 C316.32,134.05 281.7,185.52 259.33,218.78 " fill="none" id="domain.StandardProfile-backto-application.ProfileStandardisationService" style="stroke:#181818;stroke-width:1.0;stroke-dasharray:7.0,7.0;"/><polygon fill="#181818" points="339.14,100.11,330.807,105.3599,336.3566,104.2637,337.4528,109.8133,339.14,100.11" style="stroke:#181818;stroke-width:1.0;"/></g><!--MD5=[43c66a469d8cde9e9d92af4a5a3220c3]
reverse link domain.StandardProfile to infrastructure.application.Kraken2ProfileStandardisationService--><g id="link_domain.StandardProfile_infrastructure.application.Kraken2ProfileStandardisationService"><path codeLine="30" d="M416.28,101.58 C469.87,117.72 548.57,139.05 619,149 C675.36,156.96 819.23,145.62 875,157 C937.22,169.7 1004.25,197.08 1051.62,218.94 " fill="none" id="domain.StandardProfile-backto-infrastructure.application.Kraken2ProfileStandardisationService" style="stroke:#181818;stroke-width:1.0;stroke-dasharray:7.0,7.0;"/><polygon fill="#181818" points="411.17,100.04,418.6323,106.4677,415.9572,101.4833,420.9415,98.8082,411.17,100.04" style="stroke:#181818;stroke-width:1.0;"/></g><!--MD5=[a7366a7f67d059c4cc89fceb502ae599]
reverse link infrastructure.application.Kraken2Profile to test_kraken2_profile.py--><g id="link_infrastructure.application.Kraken2Profile_test_kraken2_profile.py"><path codeLine="42" d="M1643.23,89.89 C1732,101.86 1875.06,125.37 1918,157 C1999.01,216.66 2040.72,336.91 2055.09,386.66 " fill="none" id="infrastructure.application.Kraken2Profile-backto-test_kraken2_profile.py" style="stroke:#181818;stroke-width:1.0;stroke-dasharray:7.0,7.0;"/><polygon fill="#181818" points="1638.25,89.22,1646.6463,94.368,1643.2066,89.8771,1647.6976,86.4374,1638.25,89.22" style="stroke:#181818;stroke-width:1.0;"/></g><!--MD5=[9748833fb927d0fbc48770115e247dd4]
reverse link infrastructure.application.Kraken2ProfileReader to test_kraken2_profile_reader.py--><g id="link_infrastructure.application.Kraken2ProfileReader_test_kraken2_profile_reader.py"><path codeLine="43" d="M1578.89,286.71 C1632.25,317.19 1708.76,360.88 1754.41,386.96 " fill="none" id="infrastructure.application.Kraken2ProfileReader-backto-test_kraken2_profile_reader.py" style="stroke:#181818;stroke-width:1.0;stroke-dasharray:7.0,7.0;"/><polygon fill="#181818" points="1574.45,284.17,1580.274,292.1123,1578.7895,286.6538,1584.248,285.1692,1574.45,284.17" style="stroke:#181818;stroke-width:1.0;"/></g><!--MD5=[dc62d70144627e817b0d1f8fe1e1a8ec]
reverse link kraken2 to test_kraken2_profile_reader.py--><g id="link_kraken2_test_kraken2_profile_reader.py"><path codeLine="44" d="M1850.29,279.93 C1848.64,291.57 1846.04,305.16 1842,317 C1833.4,342.17 1818.52,368.77 1807.41,386.86 " fill="none" id="kraken2-backto-test_kraken2_profile_reader.py" style="stroke:#181818;stroke-width:1.0;stroke-dasharray:7.0,7.0;"/><polygon fill="#181818" points="1850.99,274.73,1845.8182,283.1117,1850.3189,279.6848,1853.7458,284.1854,1850.99,274.73" style="stroke:#181818;stroke-width:1.0;"/></g><!--MD5=[022143bb675b775b9e4e24c2fda1e9d5]
reverse link infrastructure.application.Kraken2Profile to test_kraken2_etl.py--><g id="link_infrastructure.application.Kraken2Profile_test_kraken2_etl.py"><path codeLine="50" d="M1637.31,102.15 C1663.2,113.94 1690.11,131.53 1705,157 C1738.87,214.94 1745.23,254.28 1705,308 C1688.9,329.5 1671.38,313.73 1647,325 C1610.57,341.84 1572.58,368.04 1547.55,386.7 " fill="none" id="infrastructure.application.Kraken2Profile-backto-test_kraken2_etl.py" style="stroke:#181818;stroke-width:1.0;stroke-dasharray:7.0,7.0;"/><polygon fill="#181818" points="1632.48,100.01,1639.0924,107.309,1637.0526,102.0328,1642.3288,99.9929,1632.48,100.01" style="stroke:#181818;stroke-width:1.0;"/></g><!--MD5=[ea4210ab36beb2fd93cf3445d23dc053]
reverse link infrastructure.application.Kraken2ProfileReader to test_kraken2_etl.py--><g id="link_infrastructure.application.Kraken2ProfileReader_test_kraken2_etl.py"><path codeLine="51" d="M1519,289.31 C1519,319.63 1519,361.62 1519,386.96 " fill="none" id="infrastructure.application.Kraken2ProfileReader-backto-test_kraken2_etl.py" style="stroke:#181818;stroke-width:1.0;stroke-dasharray:7.0,7.0;"/><polygon fill="#181818" points="1519,284.17,1515,293.17,1519,289.17,1523,293.17,1519,284.17" style="stroke:#181818;stroke-width:1.0;"/></g><!--MD5=[30cecbd91afff54e28f6a435e431c121]
reverse link infrastructure.application.Kraken2ProfileStandardisationService to test_kraken2_etl.py--><g id="link_infrastructure.application.Kraken2ProfileStandardisationService_test_kraken2_etl.py"><path codeLine="52" d="M1201.42,285.98 C1280.17,316.48 1394.25,360.68 1462.09,386.96 " fill="none" id="infrastructure.application.Kraken2ProfileStandardisationService-backto-test_kraken2_etl.py" style="stroke:#181818;stroke-width:1.0;stroke-dasharray:7.0,7.0;"/><polygon fill="#181818" points="1196.76,284.17,1203.7199,291.1385,1201.4256,285.9678,1206.5963,283.6735,1196.76,284.17" style="stroke:#181818;stroke-width:1.0;"/></g><!--MD5=[bfa2fe31444744d3eeb48a671aba4cbe]
reverse link kraken2 to test_kraken2_etl.py--><g id="link_kraken2_test_kraken2_etl.py"><path codeLine="53" d="M1827.19,278.17 C1811.26,292.3 1789.58,308.63 1767,317 C1716.88,335.58 1697.68,308 1647,325 C1607.44,338.27 1568.26,366.86 1543.87,386.98 " fill="none" id="kraken2-backto-test_kraken2_etl.py" style="stroke:#181818;stroke-width:1.0;stroke-dasharray:7.0,7.0;"/><polygon fill="#181818" points="1831.12,274.63,1821.761,277.6974,1827.4106,277.9827,1827.1253,283.6324,1831.12,274.63" style="stroke:#181818;stroke-width:1.0;"/></g><!--MD5=[df6cfa34f0929bd7ea60327a2d57783b]
@startuml "taxpasta_profiler_support_overview"

allowmixing

set namespaceSeparator .

abstract class application.ProfileReader <<Service>> {
    + {static} {abstract} read(profile: pathlib.Path) -> pandas.DataFrame
}
class infrastructure.application.Kraken2ProfileReader <<Service>> {
    + {static} read(profile: pathlib.Path) -> Kraken2Profile
}
application.ProfileReader <|. infrastructure.application.Kraken2ProfileReader : realizes


abstract class application.ProfileStandardisationService <<Service>> {
    + {static} {abstract} transform(profile: pandas.DataFrame) -> StandardProfile
}
class infrastructure.application.Kraken2ProfileStandardisationService <<Service>> {
    + {static} transform(profile: Kraken2Profile) -> StandardProfile
}
application.ProfileStandardisationService <|. infrastructure.application.Kraken2ProfileStandardisationService : realizes

class domain.StandardProfile <<SchemaModel>>
class infrastructure.application.Kraken2Profile <<SchemaModel>>

infrastructure.application.Kraken2Profile <.. infrastructure.application.Kraken2ProfileReader
infrastructure.application.Kraken2Profile <.. infrastructure.application.Kraken2ProfileStandardisationService

domain.StandardProfile <.. application.ProfileStandardisationService
domain.StandardProfile <.. infrastructure.application.Kraken2ProfileStandardisationService

set namespaceSeparator /

folder "tests/data/" {
    component "kraken2"
}

folder "tests/unit/infrastructure/application/" {
    component "test_kraken2_profile.py"
    component "test_kraken2_profile_reader.py"

    infrastructure.application.Kraken2Profile <.. "test_kraken2_profile.py"
    infrastructure.application.Kraken2ProfileReader <.. "test_kraken2_profile_reader.py"
    "kraken2" <.. "test_kraken2_profile_reader.py"
}

folder "tests/integration/" {
    component "test_kraken2_etl.py"

    infrastructure.application.Kraken2Profile <.. "test_kraken2_etl.py"
    infrastructure.application.Kraken2ProfileReader <.. "test_kraken2_etl.py"
    infrastructure.application.Kraken2ProfileStandardisationService <.. "test_kraken2_etl.py"
    "kraken2" <.. "test_kraken2_etl.py"
}

hide empty members

@enduml

PlantUML version 1.2022.6(Tue Jun 21 19:34:49 CEST 2022)
(GPL source distribution)
Java Runtime: OpenJDK Runtime Environment
JVM: OpenJDK 64-Bit Server VM
Default Encoding: UTF-8
Language: en
Country: US
--></g></svg>