<?xml version="1.0" encoding="UTF-8" standalone="no"?><svg xmlns="http://www.w3.org/2000/svg" xmlns:xlink="http://www.w3.org/1999/xlink" contentStyleType="text/css" height="472px" preserveAspectRatio="none" style="width:2263px;height:472px;background:#FFFFFF;" version="1.1" viewBox="0 0 2263 472" width="2263px" zoomAndPan="magnify"><defs/><g><!--MD5=[3ff016c1aa5003d713567a073e2181a6]
cluster application--><g id="cluster_application"><path d="M8.5,165 L97.5,165 A3.75,3.75 0 0 1 100,167.5 L107,187.2969 L872.5,187.2969 A2.5,2.5 0 0 1 875,189.7969 L875,297.5 A2.5,2.5 0 0 1 872.5,300 L8.5,300 A2.5,2.5 0 0 1 6,297.5 L6,167.5 A2.5,2.5 0 0 1 8.5,165 " fill="none" style="stroke:#000000;stroke-width:1.5;"/><line style="stroke:#000000;stroke-width:1.5;" x1="6" x2="107" y1="187.2969" y2="187.2969"/><text fill="#000000" font-family="sans-serif" font-size="14" font-weight="bold" lengthAdjust="spacing" textLength="88" x="10" y="179.9951">application</text></g><!--MD5=[24efc4a8de44de147e7e3265cd272a5f]
cluster infrastructure.application--><g id="cluster_infrastructure.application"><path d="M901.5,6 L1106.5,6 A3.75,3.75 0 0 1 1109,8.5 L1116,28.2969 L1701.5,28.2969 A2.5,2.5 0 0 1 1704,30.7969 L1704,297.5 A2.5,2.5 0 0 1 1701.5,300 L901.5,300 A2.5,2.5 0 0 1 899,297.5 L899,8.5 A2.5,2.5 0 0 1 901.5,6 " fill="none" style="stroke:#000000;stroke-width:1.5;"/><line style="stroke:#000000;stroke-width:1.5;" x1="899" x2="1116" y1="28.2969" y2="28.2969"/><text fill="#000000" font-family="sans-serif" font-size="14" font-weight="bold" lengthAdjust="spacing" textLength="204" x="903" y="20.9951">infrastructure.application</text></g><!--MD5=[27f772719433d509ddbc20ff768eba08]
cluster domain--><g id="cluster_domain"><path d="M221.5,6 L281.5,6 A3.75,3.75 0 0 1 284,8.5 L291,28.2969 L390.5,28.2969 A2.5,2.5 0 0 1 393,30.7969 L393,113.5 A2.5,2.5 0 0 1 390.5,116 L221.5,116 A2.5,2.5 0 0 1 219,113.5 L219,8.5 A2.5,2.5 0 0 1 221.5,6 " fill="none" style="stroke:#000000;stroke-width:1.5;"/><line style="stroke:#000000;stroke-width:1.5;" x1="219" x2="291" y1="28.2969" y2="28.2969"/><text fill="#000000" font-family="sans-serif" font-size="14" font-weight="bold" lengthAdjust="spacing" textLength="59" x="223" y="20.9951">domain</text></g><!--MD5=[b721fedbe164ad06677e97a10d644b97]
cluster tests/data/--><g id="cluster_tests/data/"><path d="M1923.5,174.5 L2009.5,174.5 A3.75,3.75 0 0 1 2012,177 L2019,196.7969 L2048.5,196.7969 A2.5,2.5 0 0 1 2051,199.2969 L2051,288 A2.5,2.5 0 0 1 2048.5,290.5 L1923.5,290.5 A2.5,2.5 0 0 1 1921,288 L1921,177 A2.5,2.5 0 0 1 1923.5,174.5 " fill="none" style="stroke:#000000;stroke-width:1.5;"/><line style="stroke:#000000;stroke-width:1.5;" x1="1921" x2="2019" y1="196.7969" y2="196.7969"/><text fill="#000000" font-family="sans-serif" font-size="14" font-weight="bold" lengthAdjust="spacing" textLength="85" x="1925" y="189.4951">tests/data/</text></g><!--MD5=[da21474fa682b69bca10dcceb7eed11a]
cluster tests/unit/infrastructure/application/kraken2/--><g id="cluster_tests/unit/infrastructure/application/kraken2/"><path d="M1726.5,349 L2087.5,349 A3.75,3.75 0 0 1 2090,351.5 L2097,371.2969 L2253.5,371.2969 A2.5,2.5 0 0 1 2256,373.7969 L2256,462.5 A2.5,2.5 0 0 1 2253.5,465 L1726.5,465 A2.5,2.5 0 0 1 1724,462.5 L1724,351.5 A2.5,2.5 0 0 1 1726.5,349 " fill="none" style="stroke:#000000;stroke-width:1.5;"/><line style="stroke:#000000;stroke-width:1.5;" x1="1724" x2="2097" y1="371.2969" y2="371.2969"/><text fill="#000000" font-family="sans-serif" font-size="14" font-weight="bold" lengthAdjust="spacing" textLength="360" x="1728" y="363.9951">tests/unit/infrastructure/application/kraken2/</text></g><!--MD5=[927008e3e5a404a53f7dfc0cd1fbbc9e]
cluster tests/integration/--><g id="cluster_tests/integration/"><path d="M1450.5,349 L1591.5,349 A3.75,3.75 0 0 1 1594,351.5 L1601,371.2969 L1653.5,371.2969 A2.5,2.5 0 0 1 1656,373.7969 L1656,462.5 A2.5,2.5 0 0 1 1653.5,465 L1450.5,465 A2.5,2.5 0 0 1 1448,462.5 L1448,351.5 A2.5,2.5 0 0 1 1450.5,349 " fill="none" style="stroke:#000000;stroke-width:1.5;"/><line style="stroke:#000000;stroke-width:1.5;" x1="1448" x2="1601" y1="371.2969" y2="371.2969"/><text fill="#000000" font-family="sans-serif" font-size="14" font-weight="bold" lengthAdjust="spacing" textLength="140" x="1452" y="363.9951">tests/integration/</text></g><!--MD5=[54b83b5bca36b8ced2064f4861d8dc98]
class application.ProfileReader--><g id="elem_application.ProfileReader"><rect codeLine="6" fill="#F1F1F1" height="64.5625" id="application.ProfileReader" rx="2.5" ry="2.5" style="stroke:#181818;stroke-width:0.5;" width="369" x="489.5" y="219"/><ellipse cx="621.25" cy="239.1328" fill="#A9DCDF" rx="11" ry="11" style="stroke:#181818;stroke-width:1.0;"/><path d="M621.3594,234.7422 L620.2031,239.8047 L622.5156,239.8047 L621.3594,234.7422 Z M619.8594,232.5078 L622.8594,232.5078 L626.2031,244.8828 L623.75,244.8828 L623,241.8203 L619.7188,241.8203 L618.9688,244.8828 L616.5313,244.8828 L619.8594,232.5078 Z " fill="#000000"/><text fill="#000000" font-family="sans-serif" font-size="12" font-style="italic" lengthAdjust="spacing" textLength="58" x="661.25" y="235.1387">«Service»</text><text fill="#000000" font-family="sans-serif" font-size="14" font-style="italic" lengthAdjust="spacing" textLength="97" x="641.75" y="250.9639">ProfileReader</text><line style="stroke:#181818;stroke-width:0.5;" x1="490.5" x2="857.5" y1="259.2656" y2="259.2656"/><ellipse cx="500.5" cy="272.9141" fill="#84BE84" rx="3" ry="3" style="stroke:#038048;stroke-width:1.0;"/><text fill="#000000" font-family="sans-serif" font-size="14" font-style="italic" lengthAdjust="spacing" text-decoration="underline" textLength="343" x="509.5" y="276.2607">read(profile: pathlib.Path) -&gt; pandas.DataFrame</text></g><!--MD5=[45457ff0917d19a7fadf5961922dd638]
class application.ProfileStandardisationService--><g id="elem_application.ProfileStandardisationService"><rect codeLine="15" fill="#F1F1F1" height="64.5625" id="application.ProfileStandardisationService" rx="2.5" ry="2.5" style="stroke:#181818;stroke-width:0.5;" width="432" x="22" y="219"/><ellipse cx="128.75" cy="239.1328" fill="#A9DCDF" rx="11" ry="11" style="stroke:#181818;stroke-width:1.0;"/><path d="M128.8594,234.7422 L127.7031,239.8047 L130.0156,239.8047 L128.8594,234.7422 Z M127.3594,232.5078 L130.3594,232.5078 L133.7031,244.8828 L131.25,244.8828 L130.5,241.8203 L127.2188,241.8203 L126.4688,244.8828 L124.0313,244.8828 L127.3594,232.5078 Z " fill="#000000"/><text fill="#000000" font-family="sans-serif" font-size="12" font-style="italic" lengthAdjust="spacing" textLength="58" x="225.25" y="235.1387">«Service»</text><text fill="#000000" font-family="sans-serif" font-size="14" font-style="italic" lengthAdjust="spacing" textLength="210" x="149.25" y="250.9639">ProfileStandardisationService</text><line style="stroke:#181818;stroke-width:0.5;" x1="23" x2="453" y1="259.2656" y2="259.2656"/><ellipse cx="33" cy="272.9141" fill="#84BE84" rx="3" ry="3" style="stroke:#038048;stroke-width:1.0;"/><text fill="#000000" font-family="sans-serif" font-size="14" font-style="italic" lengthAdjust="spacing" text-decoration="underline" textLength="406" x="42" y="276.2607">transform(profile: pandas.DataFrame) -&gt; StandardProfile</text></g><!--MD5=[e1d62640c486d0a5689591817270ed0c]
class infrastructure.application.Kraken2ProfileReader--><g id="elem_infrastructure.application.Kraken2ProfileReader"><rect codeLine="9" fill="#F1F1F1" height="64.5625" id="infrastructure.application.Kraken2ProfileReader" rx="2.5" ry="2.5" style="stroke:#181818;stroke-width:0.5;" width="337" x="1350.5" y="219"/><ellipse cx="1436.75" cy="239.1328" fill="#ADD1B2" rx="11" ry="11" style="stroke:#181818;stroke-width:1.0;"/><path d="M1439.2188,245.2734 Q1438.6406,245.5703 1438,245.7109 Q1437.3594,245.8672 1436.6563,245.8672 Q1434.1406,245.8672 1432.8281,244.2266 Q1431.5156,242.5703 1431.5156,239.4609 Q1431.5156,236.3203 1432.8281,234.6797 Q1434.1406,233.0234 1436.6563,233.0234 Q1437.3594,233.0234 1438,233.1797 Q1438.6563,233.3203 1439.2188,233.6172 L1439.2188,236.3516 Q1438.5781,235.7578 1437.9844,235.4922 Q1437.4063,235.2266 1436.7656,235.2266 Q1435.4219,235.2266 1434.7344,236.2891 Q1434.0625,237.3516 1434.0625,239.4609 Q1434.0625,241.5391 1434.7344,242.6172 Q1435.4219,243.6797 1436.7656,243.6797 Q1437.4063,243.6797 1437.9844,243.4141 Q1438.5781,243.1328 1439.2188,242.5547 L1439.2188,245.2734 Z " fill="#000000"/><text fill="#000000" font-family="sans-serif" font-size="12" font-style="italic" lengthAdjust="spacing" textLength="58" x="1506.25" y="235.1387">«Service»</text><text fill="#000000" font-family="sans-serif" font-size="14" lengthAdjust="spacing" textLength="156" x="1457.25" y="250.9639">Kraken2ProfileReader</text><line style="stroke:#181818;stroke-width:0.5;" x1="1351.5" x2="1686.5" y1="259.2656" y2="259.2656"/><ellipse cx="1361.5" cy="272.9141" fill="#84BE84" rx="3" ry="3" style="stroke:#038048;stroke-width:1.0;"/><text fill="#000000" font-family="sans-serif" font-size="14" lengthAdjust="spacing" text-decoration="underline" textLength="311" x="1370.5" y="276.2607">read(profile: pathlib.Path) -&gt; Kraken2Profile</text></g><!--MD5=[c61b4adbc381c7fe086c48be1c633be0]
class infrastructure.application.Kraken2ProfileStandardisationService--><g id="elem_infrastructure.application.Kraken2ProfileStandardisationService"><rect codeLine="18" fill="#F1F1F1" height="64.5625" id="infrastructure.application.Kraken2ProfileStandardisationService" rx="2.5" ry="2.5" style="stroke:#181818;stroke-width:0.5;" width="400" x="915" y="219"/><ellipse cx="976.25" cy="239.1328" fill="#ADD1B2" rx="11" ry="11" style="stroke:#181818;stroke-width:1.0;"/><path d="M978.7188,245.2734 Q978.1406,245.5703 977.5,245.7109 Q976.8594,245.8672 976.1563,245.8672 Q973.6406,245.8672 972.3281,244.2266 Q971.0156,242.5703 971.0156,239.4609 Q971.0156,236.3203 972.3281,234.6797 Q973.6406,233.0234 976.1563,233.0234 Q976.8594,233.0234 977.5,233.1797 Q978.1563,233.3203 978.7188,233.6172 L978.7188,236.3516 Q978.0781,235.7578 977.4844,235.4922 Q976.9063,235.2266 976.2656,235.2266 Q974.9219,235.2266 974.2344,236.2891 Q973.5625,237.3516 973.5625,239.4609 Q973.5625,241.5391 974.2344,242.6172 Q974.9219,243.6797 976.2656,243.6797 Q976.9063,243.6797 977.4844,243.4141 Q978.0781,243.1328 978.7188,242.5547 L978.7188,245.2734 Z " fill="#000000"/><text fill="#000000" font-family="sans-serif" font-size="12" font-style="italic" lengthAdjust="spacing" textLength="58" x="1102.25" y="235.1387">«Service»</text><text fill="#000000" font-family="sans-serif" font-size="14" lengthAdjust="spacing" textLength="269" x="996.75" y="250.9639">Kraken2ProfileStandardisationService</text><line style="stroke:#181818;stroke-width:0.5;" x1="916" x2="1314" y1="259.2656" y2="259.2656"/><ellipse cx="926" cy="272.9141" fill="#84BE84" rx="3" ry="3" style="stroke:#038048;stroke-width:1.0;"/><text fill="#000000" font-family="sans-serif" font-size="14" lengthAdjust="spacing" text-decoration="underline" textLength="374" x="935" y="276.2607">transform(profile: Kraken2Profile) -&gt; StandardProfile</text></g><!--MD5=[ed74f991d02c94fe560cb53d9cf7013e]
class infrastructure.application.Kraken2Profile--><g id="elem_infrastructure.application.Kraken2Profile"><rect codeLine="24" fill="#F1F1F1" height="40.2656" id="infrastructure.application.Kraken2Profile" rx="2.5" ry="2.5" style="stroke:#181818;stroke-width:0.5;" width="136" x="1524" y="60"/><ellipse cx="1539" cy="80.1328" fill="#ADD1B2" rx="11" ry="11" style="stroke:#181818;stroke-width:1.0;"/><path d="M1541.4688,86.2734 Q1540.8906,86.5703 1540.25,86.7109 Q1539.6094,86.8672 1538.9063,86.8672 Q1536.3906,86.8672 1535.0781,85.2266 Q1533.7656,83.5703 1533.7656,80.4609 Q1533.7656,77.3203 1535.0781,75.6797 Q1536.3906,74.0234 1538.9063,74.0234 Q1539.6094,74.0234 1540.25,74.1797 Q1540.9063,74.3203 1541.4688,74.6172 L1541.4688,77.3516 Q1540.8281,76.7578 1540.2344,76.4922 Q1539.6563,76.2266 1539.0156,76.2266 Q1537.6719,76.2266 1536.9844,77.2891 Q1536.3125,78.3516 1536.3125,80.4609 Q1536.3125,82.5391 1536.9844,83.6172 Q1537.6719,84.6797 1539.0156,84.6797 Q1539.6563,84.6797 1540.2344,84.4141 Q1540.8281,84.1328 1541.4688,83.5547 L1541.4688,86.2734 Z " fill="#000000"/><text fill="#000000" font-family="sans-serif" font-size="12" font-style="italic" lengthAdjust="spacing" textLength="98" x="1556" y="76.1387">«SchemaModel»</text><text fill="#000000" font-family="sans-serif" font-size="14" lengthAdjust="spacing" textLength="104" x="1553" y="91.9639">Kraken2Profile</text></g><!--MD5=[018542041a490ed3d7ed58517813c77c]
class domain.StandardProfile--><g id="elem_domain.StandardProfile"><rect codeLine="23" fill="#F1F1F1" height="40.2656" id="domain.StandardProfile" rx="2.5" ry="2.5" style="stroke:#181818;stroke-width:0.5;" width="142" x="235" y="60"/><ellipse cx="250" cy="80.1328" fill="#ADD1B2" rx="11" ry="11" style="stroke:#181818;stroke-width:1.0;"/><path d="M252.4688,86.2734 Q251.8906,86.5703 251.25,86.7109 Q250.6094,86.8672 249.9063,86.8672 Q247.3906,86.8672 246.0781,85.2266 Q244.7656,83.5703 244.7656,80.4609 Q244.7656,77.3203 246.0781,75.6797 Q247.3906,74.0234 249.9063,74.0234 Q250.6094,74.0234 251.25,74.1797 Q251.9063,74.3203 252.4688,74.6172 L252.4688,77.3516 Q251.8281,76.7578 251.2344,76.4922 Q250.6563,76.2266 250.0156,76.2266 Q248.6719,76.2266 247.9844,77.2891 Q247.3125,78.3516 247.3125,80.4609 Q247.3125,82.5391 247.9844,83.6172 Q248.6719,84.6797 250.0156,84.6797 Q250.6563,84.6797 251.2344,84.4141 Q251.8281,84.1328 252.4688,83.5547 L252.4688,86.2734 Z " fill="#000000"/><text fill="#000000" font-family="sans-serif" font-size="12" font-style="italic" lengthAdjust="spacing" textLength="98" x="270" y="76.1387">«SchemaModel»</text><text fill="#000000" font-family="sans-serif" font-size="14" lengthAdjust="spacing" textLength="110" x="264" y="91.9639">StandardProfile</text></g><!--MD5=[41c001072bc432ebba84316bbb5cb276]
entity kraken2--><g id="elem_kraken2"><rect fill="#F1F1F1" height="46.2969" rx="2.5" ry="2.5" style="stroke:#181818;stroke-width:0.5;" width="98" x="1937" y="228.5"/><rect fill="#F1F1F1" height="10" style="stroke:#181818;stroke-width:0.5;" width="15" x="2015" y="233.5"/><rect fill="#F1F1F1" height="2" style="stroke:#181818;stroke-width:0.5;" width="4" x="2013" y="235.5"/><rect fill="#F1F1F1" height="2" style="stroke:#181818;stroke-width:0.5;" width="4" x="2013" y="239.5"/><text fill="#000000" font-family="sans-serif" font-size="14" lengthAdjust="spacing" textLength="58" x="1952" y="261.4951">kraken2</text></g><!--MD5=[126cdf0273012b0100d2b2ffee2608ae]
entity test_kraken2_profile.py--><g id="elem_test_kraken2_profile.py"><rect fill="#F1F1F1" height="46.2969" rx="2.5" ry="2.5" style="stroke:#181818;stroke-width:0.5;" width="205" x="2035.5" y="403"/><rect fill="#F1F1F1" height="10" style="stroke:#181818;stroke-width:0.5;" width="15" x="2220.5" y="408"/><rect fill="#F1F1F1" height="2" style="stroke:#181818;stroke-width:0.5;" width="4" x="2218.5" y="410"/><rect fill="#F1F1F1" height="2" style="stroke:#181818;stroke-width:0.5;" width="4" x="2218.5" y="414"/><text fill="#000000" font-family="sans-serif" font-size="14" lengthAdjust="spacing" textLength="165" x="2050.5" y="435.9951">test_kraken2_profile.py</text></g><!--MD5=[9e67b87e3a63fd5d60a186c13a3c6103]
entity test_kraken2_profile_reader.py--><g id="elem_test_kraken2_profile_reader.py"><rect fill="#F1F1F1" height="46.2969" rx="2.5" ry="2.5" style="stroke:#181818;stroke-width:0.5;" width="260" x="1740" y="403"/><rect fill="#F1F1F1" height="10" style="stroke:#181818;stroke-width:0.5;" width="15" x="1980" y="408"/><rect fill="#F1F1F1" height="2" style="stroke:#181818;stroke-width:0.5;" width="4" x="1978" y="410"/><rect fill="#F1F1F1" height="2" style="stroke:#181818;stroke-width:0.5;" width="4" x="1978" y="414"/><text fill="#000000" font-family="sans-serif" font-size="14" lengthAdjust="spacing" textLength="220" x="1755" y="435.9951">test_kraken2_profile_reader.py</text></g><!--MD5=[0e1b77514311491a8870cac6ea30bcd8]
entity test_kraken2_etl.py--><g id="elem_test_kraken2_etl.py"><rect fill="#F1F1F1" height="46.2969" rx="2.5" ry="2.5" style="stroke:#181818;stroke-width:0.5;" width="177" x="1463.5" y="403"/><rect fill="#F1F1F1" height="10" style="stroke:#181818;stroke-width:0.5;" width="15" x="1620.5" y="408"/><rect fill="#F1F1F1" height="2" style="stroke:#181818;stroke-width:0.5;" width="4" x="1618.5" y="410"/><rect fill="#F1F1F1" height="2" style="stroke:#181818;stroke-width:0.5;" width="4" x="1618.5" y="414"/><text fill="#000000" font-family="sans-serif" font-size="14" lengthAdjust="spacing" textLength="137" x="1478.5" y="435.9951">test_kraken2_etl.py</text></g><!--MD5=[f4720d8779bae674bd9aab653b8424b3]
reverse link application.ProfileReader to infrastructure.application.Kraken2ProfileReader--><g id="link_application.ProfileReader_infrastructure.application.Kraken2ProfileReader"><path codeLine="12" d="M751.49,210.13 C793.8,189.84 847.85,167.54 899,157 C993.22,137.58 1329.9,156.25 1333,157 C1382.82,169.03 1434.39,196.63 1470.56,218.92 " fill="none" id="application.ProfileReader-backto-infrastructure.application.Kraken2ProfileReader" style="stroke:#181818;stroke-width:1.0;stroke-dasharray:7.0,7.0;"/><polygon fill="none" points="754.57,216.42,733.53,218.96,748.39,203.85,754.57,216.42" style="stroke:#181818;stroke-width:1.0;"/><text fill="#000000" font-family="sans-serif" font-size="13" lengthAdjust="spacing" textLength="51" x="1012.5" y="145.0669">realizes</text></g><!--MD5=[fbab85c930c4c0be60af4ddad2cd02e4]
reverse link application.ProfileStandardisationService to infrastructure.application.Kraken2ProfileStandardisationService--><g id="link_application.ProfileStandardisationService_infrastructure.application.Kraken2ProfileStandardisationService"><path codeLine="21" d="M318.17,210.35 C362.31,189.97 418.78,167.52 472,157 C559.86,139.63 787.06,140.08 875,157 C937.22,168.97 1003.98,196.58 1051.26,218.88 " fill="none" id="application.ProfileStandardisationService-backto-infrastructure.application.Kraken2ProfileStandardisationService" style="stroke:#181818;stroke-width:1.0;stroke-dasharray:7.0,7.0;"/><polygon fill="none" points="321.13,216.69,300.06,218.91,315.15,204.03,321.13,216.69" style="stroke:#181818;stroke-width:1.0;"/><text fill="#000000" font-family="sans-serif" font-size="13" lengthAdjust="spacing" textLength="51" x="627.5" y="145.0669">realizes</text></g><!--MD5=[ed1fccdeca0189f87c8f7fd967529c92]
reverse link infrastructure.application.Kraken2Profile to infrastructure.application.Kraken2ProfileReader--><g id="link_infrastructure.application.Kraken2Profile_infrastructure.application.Kraken2ProfileReader"><path codeLine="26" d="M1581.63,105.07 C1568.79,134.89 1546.87,185.8 1532.66,218.78 " fill="none" id="infrastructure.application.Kraken2Profile-backto-infrastructure.application.Kraken2ProfileReader" style="stroke:#181818;stroke-width:1.0;stroke-dasharray:7.0,7.0;"/><polygon fill="#181818" points="1583.77,100.11,1576.5306,106.7877,1581.7884,104.7005,1583.8755,109.9583,1583.77,100.11" style="stroke:#181818;stroke-width:1.0;"/><text fill="#000000" font-family="sans-serif" font-size="13" lengthAdjust="spacing" textLength="75" x="1569" y="145.0669">depends on</text></g><!--MD5=[63ff4aa245cae9ff81cf4afd17937837]
reverse link infrastructure.application.Kraken2Profile to infrastructure.application.Kraken2ProfileStandardisationService--><g id="link_infrastructure.application.Kraken2Profile_infrastructure.application.Kraken2ProfileStandardisationService"><path codeLine="27" d="M1518.94,99.93 C1466.64,114.08 1394.83,134.76 1333,157 C1281.85,175.4 1225.49,199.68 1182.89,218.89 " fill="none" id="infrastructure.application.Kraken2Profile-backto-infrastructure.application.Kraken2ProfileStandardisationService" style="stroke:#181818;stroke-width:1.0;stroke-dasharray:7.0,7.0;"/><polygon fill="#181818" points="1523.94,98.58,1514.2096,97.0573,1519.1119,99.8799,1516.2894,104.7822,1523.94,98.58" style="stroke:#181818;stroke-width:1.0;"/><text fill="#000000" font-family="sans-serif" font-size="13" lengthAdjust="spacing" textLength="75" x="1404" y="145.0669">depends on</text></g><!--MD5=[bdcebefc4abbf7c77fbad4a99a67bdd2]
reverse link domain.StandardProfile to application.ProfileStandardisationService--><g id="link_domain.StandardProfile_application.ProfileStandardisationService"><path codeLine="29" d="M271.25,103.31 C261.78,111.19 252.6,120.89 247,132 C233.39,158.99 232.41,193.9 234.06,218.82 " fill="none" id="domain.StandardProfile-backto-application.ProfileStandardisationService" style="stroke:#181818;stroke-width:1.0;stroke-dasharray:7.0,7.0;"/><polygon fill="#181818" points="275.31,100.05,265.7868,102.5615,271.4098,103.1787,270.7927,108.8018,275.31,100.05" style="stroke:#181818;stroke-width:1.0;"/><text fill="#000000" font-family="sans-serif" font-size="13" lengthAdjust="spacing" textLength="75" x="248" y="145.0669">depends on</text></g><!--MD5=[43c66a469d8cde9e9d92af4a5a3220c3]
reverse link domain.StandardProfile to infrastructure.application.Kraken2ProfileStandardisationService--><g id="link_domain.StandardProfile_infrastructure.application.Kraken2ProfileStandardisationService"><path codeLine="30" d="M362.17,101.7 C409.21,117.94 478.5,139.37 541,149 C614.38,160.3 802.2,142.42 875,157 C937.26,169.47 1004.29,196.88 1051.65,218.81 " fill="none" id="domain.StandardProfile-backto-infrastructure.application.Kraken2ProfileStandardisationService" style="stroke:#181818;stroke-width:1.0;stroke-dasharray:7.0,7.0;"/><polygon fill="#181818" points="357.4,100.04,364.5824,106.7789,362.1215,101.6854,367.215,99.2245,357.4,100.04" style="stroke:#181818;stroke-width:1.0;"/><text fill="#000000" font-family="sans-serif" font-size="13" lengthAdjust="spacing" textLength="75" x="542" y="145.0669">depends on</text></g><!--MD5=[a7366a7f67d059c4cc89fceb502ae599]
reverse link infrastructure.application.Kraken2Profile to test_kraken2_profile.py--><g id="link_infrastructure.application.Kraken2Profile_test_kraken2_profile.py"><path codeLine="42" d="M1665.27,84.05 C1779.88,90.28 1994.36,108.27 2051,157 C2125.91,221.45 2136.77,351.05 2138.02,402.86 " fill="none" id="infrastructure.application.Kraken2Profile-backto-test_kraken2_profile.py" style="stroke:#181818;stroke-width:1.0;stroke-dasharray:7.0,7.0;"/><polygon fill="#181818" points="1660.22,83.78,1668.9899,88.262,1665.2126,84.051,1669.4236,80.2737,1660.22,83.78" style="stroke:#181818;stroke-width:1.0;"/><text fill="#000000" font-family="sans-serif" font-size="13" lengthAdjust="spacing" textLength="75" x="2128" y="256.0669">depends on</text></g><!--MD5=[9748833fb927d0fbc48770115e247dd4]
reverse link infrastructure.application.Kraken2ProfileReader to test_kraken2_profile_reader.py--><g id="link_infrastructure.application.Kraken2ProfileReader_test_kraken2_profile_reader.py"><path codeLine="43" d="M1587.95,286.39 C1658.15,320.89 1764.95,373.38 1824.98,402.87 " fill="none" id="infrastructure.application.Kraken2ProfileReader-backto-test_kraken2_profile_reader.py" style="stroke:#181818;stroke-width:1.0;stroke-dasharray:7.0,7.0;"/><polygon fill="#181818" points="1583.38,284.14,1589.6893,291.7026,1587.8663,286.3475,1593.2213,284.5245,1583.38,284.14" style="stroke:#181818;stroke-width:1.0;"/><text fill="#000000" font-family="sans-serif" font-size="13" lengthAdjust="spacing" textLength="75" x="1674" y="329.0669">depends on</text></g><!--MD5=[dc62d70144627e817b0d1f8fe1e1a8ec]
reverse link kraken2 to test_kraken2_profile_reader.py--><g id="link_kraken2_test_kraken2_profile_reader.py"><path codeLine="44" d="M1998.41,279.73 C2003.92,295.98 2007.46,316.58 1999,333 C1982.75,364.55 1950.12,387.66 1921.75,402.83 " fill="none" id="kraken2-backto-test_kraken2_profile_reader.py" style="stroke:#181818;stroke-width:1.0;stroke-dasharray:7.0,7.0;"/><polygon fill="#181818" points="1996.65,274.84,1995.9138,284.6613,1998.3335,279.5481,2003.4467,281.9677,1996.65,274.84" style="stroke:#181818;stroke-width:1.0;"/><text fill="#000000" font-family="sans-serif" font-size="13" lengthAdjust="spacing" textLength="75" x="2004" y="329.0669">depends on</text></g><!--MD5=[022143bb675b775b9e4e24c2fda1e9d5]
reverse link infrastructure.application.Kraken2Profile to test_kraken2_etl.py--><g id="link_infrastructure.application.Kraken2Profile_test_kraken2_etl.py"><path codeLine="50" d="M1644.71,102.53 C1667.59,114.84 1692.08,132.74 1705,157 C1736.55,216.23 1734.73,247.83 1705,308 C1683.44,351.62 1636.97,383.45 1600.86,402.8 " fill="none" id="infrastructure.application.Kraken2Profile-backto-test_kraken2_etl.py" style="stroke:#181818;stroke-width:1.0;stroke-dasharray:7.0,7.0;"/><polygon fill="#181818" points="1640.16,100.14,1646.2541,107.8771,1644.5824,102.4729,1649.9866,100.8012,1640.16,100.14" style="stroke:#181818;stroke-width:1.0;"/><text fill="#000000" font-family="sans-serif" font-size="13" lengthAdjust="spacing" textLength="75" x="1728" y="256.0669">depends on</text></g><!--MD5=[ea4210ab36beb2fd93cf3445d23dc053]
reverse link infrastructure.application.Kraken2ProfileReader to test_kraken2_etl.py--><g id="link_infrastructure.application.Kraken2ProfileReader_test_kraken2_etl.py"><path codeLine="51" d="M1526,289.11 C1532.6,323.6 1542.27,374.14 1547.77,402.87 " fill="none" id="infrastructure.application.Kraken2ProfileReader-backto-test_kraken2_etl.py" style="stroke:#181818;stroke-width:1.0;stroke-dasharray:7.0,7.0;"/><polygon fill="#181818" points="1525.05,284.14,1522.8175,293.7325,1525.9921,289.0504,1530.6742,292.2251,1525.05,284.14" style="stroke:#181818;stroke-width:1.0;"/><text fill="#000000" font-family="sans-serif" font-size="13" lengthAdjust="spacing" textLength="75" x="1534" y="329.0669">depends on</text></g><!--MD5=[30cecbd91afff54e28f6a435e431c121]
reverse link infrastructure.application.Kraken2ProfileStandardisationService to test_kraken2_etl.py--><g id="link_infrastructure.application.Kraken2ProfileStandardisationService_test_kraken2_etl.py"><path codeLine="52" d="M1199.81,285.98 C1287.29,320.51 1421.22,373.38 1496.2,402.97 " fill="none" id="infrastructure.application.Kraken2ProfileStandardisationService-backto-test_kraken2_etl.py" style="stroke:#181818;stroke-width:1.0;stroke-dasharray:7.0,7.0;"/><polygon fill="#181818" points="1194.9,284.04,1201.8081,291.0598,1199.5522,285.8722,1204.7397,283.6163,1194.9,284.04" style="stroke:#181818;stroke-width:1.0;"/><text fill="#000000" font-family="sans-serif" font-size="13" lengthAdjust="spacing" textLength="75" x="1308" y="329.0669">depends on</text></g><!--MD5=[bfa2fe31444744d3eeb48a671aba4cbe]
reverse link kraken2 to test_kraken2_etl.py--><g id="link_kraken2_test_kraken2_etl.py"><path codeLine="53" d="M1931.85,274.75 C1905.27,285.36 1872.67,297.9 1843,308 C1805.72,320.69 1796.07,322.93 1758,333 C1742.99,336.97 1738.62,335.78 1724,341 C1676.58,357.92 1625.05,384.23 1590.88,402.89 " fill="none" id="kraken2-backto-test_kraken2_etl.py" style="stroke:#181818;stroke-width:1.0;stroke-dasharray:7.0,7.0;"/><polygon fill="#181818" points="1936.74,272.8,1926.8981,272.4286,1932.0976,274.657,1929.8693,279.8564,1936.74,272.8" style="stroke:#181818;stroke-width:1.0;"/><text fill="#000000" font-family="sans-serif" font-size="13" lengthAdjust="spacing" textLength="75" x="1819" y="329.0669">depends on</text></g><!--MD5=[521fad778f07317c3bb1504ade5243b1]
@startuml "taxpasta_profiler_support_overview"

allowmixing

set namespaceSeparator .

abstract class application.ProfileReader <<Service>> {
    + {static} {abstract} read(profile: pathlib.Path) -> pandas.DataFrame
}
class infrastructure.application.Kraken2ProfileReader <<Service>> {
    + {static} read(profile: pathlib.Path) -> Kraken2Profile
}
application.ProfileReader <|. infrastructure.application.Kraken2ProfileReader : realizes


abstract class application.ProfileStandardisationService <<Service>> {
    + {static} {abstract} transform(profile: pandas.DataFrame) -> StandardProfile
}
class infrastructure.application.Kraken2ProfileStandardisationService <<Service>> {
    + {static} transform(profile: Kraken2Profile) -> StandardProfile
}
application.ProfileStandardisationService <|. infrastructure.application.Kraken2ProfileStandardisationService : realizes

class domain.StandardProfile <<SchemaModel>>
class infrastructure.application.Kraken2Profile <<SchemaModel>>

infrastructure.application.Kraken2Profile <.. infrastructure.application.Kraken2ProfileReader : "depends on"
infrastructure.application.Kraken2Profile <.. infrastructure.application.Kraken2ProfileStandardisationService : "depends on"

domain.StandardProfile <.. application.ProfileStandardisationService : "depends on"
domain.StandardProfile <.. infrastructure.application.Kraken2ProfileStandardisationService : "depends on"

set namespaceSeparator /

folder "tests/data/" {
    component "kraken2"
}

folder "tests/unit/infrastructure/application/kraken2/" {
    component "test_kraken2_profile.py"
    component "test_kraken2_profile_reader.py"

    infrastructure.application.Kraken2Profile <.. "test_kraken2_profile.py" : "depends on"
    infrastructure.application.Kraken2ProfileReader <.. "test_kraken2_profile_reader.py" : "depends on"
    "kraken2" <.. "test_kraken2_profile_reader.py" : "depends on"
}

folder "tests/integration/" {
    component "test_kraken2_etl.py"

    infrastructure.application.Kraken2Profile <.. "test_kraken2_etl.py" : "depends on"
    infrastructure.application.Kraken2ProfileReader <.. "test_kraken2_etl.py" : "depends on"
    infrastructure.application.Kraken2ProfileStandardisationService <.. "test_kraken2_etl.py" : "depends on"
    "kraken2" <.. "test_kraken2_etl.py" : "depends on"
}

hide empty members

@enduml

PlantUML version 1.2022.7(Mon Aug 22 19:01:30 CEST 2022)
(GPL source distribution)
Java Runtime: OpenJDK Runtime Environment
JVM: OpenJDK 64-Bit Server VM
Default Encoding: UTF-8
Language: en
Country: US
--></g></svg>