<?xml version="1.0" encoding="UTF-8" standalone="no"?><svg xmlns="http://www.w3.org/2000/svg" xmlns:xlink="http://www.w3.org/1999/xlink" contentStyleType="text/css" height="307px" preserveAspectRatio="none" style="width:1637px;height:307px;background:#FFFFFF;" version="1.1" viewBox="0 0 1637 307" width="1637px" zoomAndPan="magnify"><defs/><g><!--MD5=[3ff016c1aa5003d713567a073e2181a6]
cluster application--><g id="cluster_application"><path d="M8.5,165 L94.5,165 A3.75,3.75 0 0 1 97,167.5 L104,187.2969 L832.5,187.2969 A2.5,2.5 0 0 1 835,189.7969 L835,297.5 A2.5,2.5 0 0 1 832.5,300 L8.5,300 A2.5,2.5 0 0 1 6,297.5 L6,167.5 A2.5,2.5 0 0 1 8.5,165 " style="stroke:#000000;stroke-width:1.5;fill:none;"/><line style="stroke:#000000;stroke-width:1.5;fill:none;" x1="6" x2="104" y1="187.2969" y2="187.2969"/><text fill="#000000" font-family="sans-serif" font-size="14" font-weight="bold" lengthAdjust="spacing" textLength="85" x="10" y="179.9951">application</text></g><!--MD5=[24efc4a8de44de147e7e3265cd272a5f]
cluster infrastructure.application--><g id="cluster_infrastructure.application"><path d="M861.5,6 L1062.5,6 A3.75,3.75 0 0 1 1065,8.5 L1072,28.2969 L1627.5,28.2969 A2.5,2.5 0 0 1 1630,30.7969 L1630,297.5 A2.5,2.5 0 0 1 1627.5,300 L861.5,300 A2.5,2.5 0 0 1 859,297.5 L859,8.5 A2.5,2.5 0 0 1 861.5,6 " style="stroke:#000000;stroke-width:1.5;fill:none;"/><line style="stroke:#000000;stroke-width:1.5;fill:none;" x1="859" x2="1072" y1="28.2969" y2="28.2969"/><text fill="#000000" font-family="sans-serif" font-size="14" font-weight="bold" lengthAdjust="spacing" textLength="200" x="863" y="20.9951">infrastructure.application</text></g><!--MD5=[27f772719433d509ddbc20ff768eba08]
cluster domain--><g id="cluster_domain"><path d="M253.5,6 L311.5,6 A3.75,3.75 0 0 1 314,8.5 L321,28.2969 L416.5,28.2969 A2.5,2.5 0 0 1 419,30.7969 L419,113.5 A2.5,2.5 0 0 1 416.5,116 L253.5,116 A2.5,2.5 0 0 1 251,113.5 L251,8.5 A2.5,2.5 0 0 1 253.5,6 " style="stroke:#000000;stroke-width:1.5;fill:none;"/><line style="stroke:#000000;stroke-width:1.5;fill:none;" x1="251" x2="321" y1="28.2969" y2="28.2969"/><text fill="#000000" font-family="sans-serif" font-size="14" font-weight="bold" lengthAdjust="spacing" textLength="57" x="255" y="20.9951">domain</text></g><!--MD5=[54b83b5bca36b8ced2064f4861d8dc98]
class application.ProfileReader--><g id="elem_application.ProfileReader"><rect codeLine="2" fill="#F1F1F1" height="64.5625" id="application.ProfileReader" rx="2.5" ry="2.5" style="stroke:#181818;stroke-width:0.5;" width="352" x="467" y="219"/><ellipse cx="593.25" cy="239.1328" fill="#A9DCDF" rx="11" ry="11" style="stroke:#181818;stroke-width:1.0;"/><path d="M593.3594,234.4766 L592.2031,239.5547 L594.5313,239.5547 L593.3594,234.4766 Z M591.875,232.2422 L594.8594,232.2422 L598.2188,244.6328 L595.7656,244.6328 L595,241.5703 L591.7188,241.5703 L590.9688,244.6328 L588.5313,244.6328 L591.875,232.2422 Z " fill="#000000"/><text fill="#000000" font-family="sans-serif" font-size="12" font-style="italic" lengthAdjust="spacing" textLength="59" x="629.75" y="235.1387">«Service»</text><text fill="#000000" font-family="sans-serif" font-size="14" font-style="italic" lengthAdjust="spacing" textLength="91" x="613.75" y="250.9639">ProfileReader</text><line style="stroke:#181818;stroke-width:0.5;" x1="468" x2="818" y1="259.2656" y2="259.2656"/><ellipse cx="478" cy="270.2656" fill="#84BE84" rx="3" ry="3" style="stroke:#038048;stroke-width:1.0;"/><text fill="#000000" font-family="sans-serif" font-size="14" font-style="italic" lengthAdjust="spacing" text-decoration="underline" textLength="326" x="487" y="276.2607">read(profile: pathlib.Path) -&gt; pandas.DataFrame</text></g><!--MD5=[45457ff0917d19a7fadf5961922dd638]
class application.ProfileStandardisationService--><g id="elem_application.ProfileStandardisationService"><rect codeLine="11" fill="#F1F1F1" height="64.5625" id="application.ProfileStandardisationService" rx="2.5" ry="2.5" style="stroke:#181818;stroke-width:0.5;" width="409" x="22.5" y="219"/><ellipse cx="123.75" cy="239.1328" fill="#A9DCDF" rx="11" ry="11" style="stroke:#181818;stroke-width:1.0;"/><path d="M123.8594,234.4766 L122.7031,239.5547 L125.0313,239.5547 L123.8594,234.4766 Z M122.375,232.2422 L125.3594,232.2422 L128.7188,244.6328 L126.2656,244.6328 L125.5,241.5703 L122.2188,241.5703 L121.4688,244.6328 L119.0313,244.6328 L122.375,232.2422 Z " fill="#000000"/><text fill="#000000" font-family="sans-serif" font-size="12" font-style="italic" lengthAdjust="spacing" textLength="59" x="213.75" y="235.1387">«Service»</text><text fill="#000000" font-family="sans-serif" font-size="14" font-style="italic" lengthAdjust="spacing" textLength="198" x="144.25" y="250.9639">ProfileStandardisationService</text><line style="stroke:#181818;stroke-width:0.5;" x1="23.5" x2="430.5" y1="259.2656" y2="259.2656"/><ellipse cx="33.5" cy="270.2656" fill="#84BE84" rx="3" ry="3" style="stroke:#038048;stroke-width:1.0;"/><text fill="#000000" font-family="sans-serif" font-size="14" font-style="italic" lengthAdjust="spacing" text-decoration="underline" textLength="383" x="42.5" y="276.2607">transform(profile: pandas.DataFrame) -&gt; StandardProfile</text></g><!--MD5=[e1d62640c486d0a5689591817270ed0c]
class infrastructure.application.Kraken2ProfileReader--><g id="elem_infrastructure.application.Kraken2ProfileReader"><rect codeLine="5" fill="#F1F1F1" height="64.5625" id="infrastructure.application.Kraken2ProfileReader" rx="2.5" ry="2.5" style="stroke:#181818;stroke-width:0.5;" width="323" x="1290.5" y="219"/><ellipse cx="1373.25" cy="239.1328" fill="#ADD1B2" rx="11" ry="11" style="stroke:#181818;stroke-width:1.0;"/><path d="M1376.2188,244.7734 Q1375.6406,245.0703 1375,245.2109 Q1374.3594,245.3672 1373.6563,245.3672 Q1371.1563,245.3672 1369.8281,243.7266 Q1368.5156,242.0703 1368.5156,238.9453 Q1368.5156,235.8203 1369.8281,234.1641 Q1371.1563,232.5078 1373.6563,232.5078 Q1374.3594,232.5078 1375,232.6641 Q1375.6563,232.8203 1376.2188,233.1172 L1376.2188,235.8359 Q1375.5938,235.2578 1375,234.9922 Q1374.4063,234.7109 1373.7813,234.7109 Q1372.4375,234.7109 1371.75,235.7891 Q1371.0625,236.8516 1371.0625,238.9453 Q1371.0625,241.0391 1371.75,242.1172 Q1372.4375,243.1797 1373.7813,243.1797 Q1374.4063,243.1797 1375,242.9141 Q1375.5938,242.6328 1376.2188,242.0547 L1376.2188,244.7734 Z " fill="#000000"/><text fill="#000000" font-family="sans-serif" font-size="12" font-style="italic" lengthAdjust="spacing" textLength="59" x="1438.75" y="235.1387">«Service»</text><text fill="#000000" font-family="sans-serif" font-size="14" lengthAdjust="spacing" textLength="149" x="1393.75" y="250.9639">Kraken2ProfileReader</text><line style="stroke:#181818;stroke-width:0.5;" x1="1291.5" x2="1612.5" y1="259.2656" y2="259.2656"/><ellipse cx="1301.5" cy="270.2656" fill="#84BE84" rx="3" ry="3" style="stroke:#038048;stroke-width:1.0;"/><text fill="#000000" font-family="sans-serif" font-size="14" lengthAdjust="spacing" text-decoration="underline" textLength="297" x="1310.5" y="276.2607">read(profile: pathlib.Path) -&gt; Kraken2Profile</text></g><!--MD5=[c61b4adbc381c7fe086c48be1c633be0]
class infrastructure.application.Kraken2ProfileStandardisationService--><g id="elem_infrastructure.application.Kraken2ProfileStandardisationService"><rect codeLine="14" fill="#F1F1F1" height="64.5625" id="infrastructure.application.Kraken2ProfileStandardisationService" rx="2.5" ry="2.5" style="stroke:#181818;stroke-width:0.5;" width="381" x="874.5" y="219"/><ellipse cx="932.75" cy="239.1328" fill="#ADD1B2" rx="11" ry="11" style="stroke:#181818;stroke-width:1.0;"/><path d="M935.7188,244.7734 Q935.1406,245.0703 934.5,245.2109 Q933.8594,245.3672 933.1563,245.3672 Q930.6563,245.3672 929.3281,243.7266 Q928.0156,242.0703 928.0156,238.9453 Q928.0156,235.8203 929.3281,234.1641 Q930.6563,232.5078 933.1563,232.5078 Q933.8594,232.5078 934.5,232.6641 Q935.1563,232.8203 935.7188,233.1172 L935.7188,235.8359 Q935.0938,235.2578 934.5,234.9922 Q933.9063,234.7109 933.2813,234.7109 Q931.9375,234.7109 931.25,235.7891 Q930.5625,236.8516 930.5625,238.9453 Q930.5625,241.0391 931.25,242.1172 Q931.9375,243.1797 933.2813,243.1797 Q933.9063,243.1797 934.5,242.9141 Q935.0938,242.6328 935.7188,242.0547 L935.7188,244.7734 Z " fill="#000000"/><text fill="#000000" font-family="sans-serif" font-size="12" font-style="italic" lengthAdjust="spacing" textLength="59" x="1051.75" y="235.1387">«Service»</text><text fill="#000000" font-family="sans-serif" font-size="14" lengthAdjust="spacing" textLength="256" x="953.25" y="250.9639">Kraken2ProfileStandardisationService</text><line style="stroke:#181818;stroke-width:0.5;" x1="875.5" x2="1254.5" y1="259.2656" y2="259.2656"/><ellipse cx="885.5" cy="270.2656" fill="#84BE84" rx="3" ry="3" style="stroke:#038048;stroke-width:1.0;"/><text fill="#000000" font-family="sans-serif" font-size="14" lengthAdjust="spacing" text-decoration="underline" textLength="355" x="894.5" y="276.2607">transform(profile: Kraken2Profile) -&gt; StandardProfile</text></g><!--MD5=[ed74f991d02c94fe560cb53d9cf7013e]
class infrastructure.application.Kraken2Profile--><g id="elem_infrastructure.application.Kraken2Profile"><rect codeLine="20" fill="#F1F1F1" height="40.2656" id="infrastructure.application.Kraken2Profile" rx="2.5" ry="2.5" style="stroke:#181818;stroke-width:0.5;" width="131" x="1193.5" y="60"/><ellipse cx="1208.5" cy="80.1328" fill="#ADD1B2" rx="11" ry="11" style="stroke:#181818;stroke-width:1.0;"/><path d="M1211.4688,85.7734 Q1210.8906,86.0703 1210.25,86.2109 Q1209.6094,86.3672 1208.9063,86.3672 Q1206.4063,86.3672 1205.0781,84.7266 Q1203.7656,83.0703 1203.7656,79.9453 Q1203.7656,76.8203 1205.0781,75.1641 Q1206.4063,73.5078 1208.9063,73.5078 Q1209.6094,73.5078 1210.25,73.6641 Q1210.9063,73.8203 1211.4688,74.1172 L1211.4688,76.8359 Q1210.8438,76.2578 1210.25,75.9922 Q1209.6563,75.7109 1209.0313,75.7109 Q1207.6875,75.7109 1207,76.7891 Q1206.3125,77.8516 1206.3125,79.9453 Q1206.3125,82.0391 1207,83.1172 Q1207.6875,84.1797 1209.0313,84.1797 Q1209.6563,84.1797 1210.25,83.9141 Q1210.8438,83.6328 1211.4688,83.0547 L1211.4688,85.7734 Z " fill="#000000"/><text fill="#000000" font-family="sans-serif" font-size="12" font-style="italic" lengthAdjust="spacing" textLength="101" x="1221.5" y="76.1387">«SchemaModel»</text><text fill="#000000" font-family="sans-serif" font-size="14" lengthAdjust="spacing" textLength="99" x="1222.5" y="91.9639">Kraken2Profile</text></g><!--MD5=[018542041a490ed3d7ed58517813c77c]
class domain.StandardProfile--><g id="elem_domain.StandardProfile"><rect codeLine="19" fill="#F1F1F1" height="40.2656" id="domain.StandardProfile" rx="2.5" ry="2.5" style="stroke:#181818;stroke-width:0.5;" width="136" x="267" y="60"/><ellipse cx="282" cy="80.1328" fill="#ADD1B2" rx="11" ry="11" style="stroke:#181818;stroke-width:1.0;"/><path d="M284.9688,85.7734 Q284.3906,86.0703 283.75,86.2109 Q283.1094,86.3672 282.4063,86.3672 Q279.9063,86.3672 278.5781,84.7266 Q277.2656,83.0703 277.2656,79.9453 Q277.2656,76.8203 278.5781,75.1641 Q279.9063,73.5078 282.4063,73.5078 Q283.1094,73.5078 283.75,73.6641 Q284.4063,73.8203 284.9688,74.1172 L284.9688,76.8359 Q284.3438,76.2578 283.75,75.9922 Q283.1563,75.7109 282.5313,75.7109 Q281.1875,75.7109 280.5,76.7891 Q279.8125,77.8516 279.8125,79.9453 Q279.8125,82.0391 280.5,83.1172 Q281.1875,84.1797 282.5313,84.1797 Q283.1563,84.1797 283.75,83.9141 Q284.3438,83.6328 284.9688,83.0547 L284.9688,85.7734 Z " fill="#000000"/><text fill="#000000" font-family="sans-serif" font-size="12" font-style="italic" lengthAdjust="spacing" textLength="101" x="297.5" y="76.1387">«SchemaModel»</text><text fill="#000000" font-family="sans-serif" font-size="14" lengthAdjust="spacing" textLength="104" x="296" y="91.9639">StandardProfile</text></g><!--MD5=[f4720d8779bae674bd9aab653b8424b3]
reverse link application.ProfileReader to infrastructure.application.Kraken2ProfileReader--><g id="link_application.ProfileReader_infrastructure.application.Kraken2ProfileReader"><path codeLine="8" d="M718.49,209.71 C758.88,189.64 810.22,167.68 859,157 C969.19,132.87 1202.15,139.33 1273,157 C1321.25,169.04 1370.84,196.64 1405.56,218.92 " fill="none" id="application.ProfileReader-backto-infrastructure.application.Kraken2ProfileReader" style="stroke:#181818;stroke-width:1.0;stroke-dasharray:7.0,7.0;"/><polygon fill="none" points="721.47,216.05,700.47,218.9,715.11,203.58,721.47,216.05" style="stroke:#181818;stroke-width:1.0;"/><text fill="#000000" font-family="sans-serif" font-size="13" lengthAdjust="spacing" textLength="49" x="913.5" y="145.0669">realizes</text></g><!--MD5=[fbab85c930c4c0be60af4ddad2cd02e4]
reverse link application.ProfileStandardisationService to infrastructure.application.Kraken2ProfileStandardisationService--><g id="link_application.ProfileStandardisationService_infrastructure.application.Kraken2ProfileStandardisationService"><path codeLine="17" d="M304.03,209.95 C345.91,189.69 399.36,167.47 450,157 C533.78,139.68 751.11,140.21 835,157 C894.9,168.99 958.85,196.6 1004.07,218.89 " fill="none" id="application.ProfileStandardisationService-backto-infrastructure.application.Kraken2ProfileStandardisationService" style="stroke:#181818;stroke-width:1.0;stroke-dasharray:7.0,7.0;"/><polygon fill="none" points="306.98,216.3,285.96,218.93,300.76,203.76,306.98,216.3" style="stroke:#181818;stroke-width:1.0;"/><text fill="#000000" font-family="sans-serif" font-size="13" lengthAdjust="spacing" textLength="49" x="597.5" y="145.0669">realizes</text></g><!--MD5=[ed1fccdeca0189f87c8f7fd967529c92]
reverse link infrastructure.application.Kraken2Profile to infrastructure.application.Kraken2ProfileReader--><g id="link_infrastructure.application.Kraken2Profile_infrastructure.application.Kraken2ProfileReader"><path codeLine="22" d="M1284.74,103.61 C1318.45,133.21 1377.7,185.25 1415.88,218.78 " fill="none" id="infrastructure.application.Kraken2Profile-backto-infrastructure.application.Kraken2ProfileReader" style="stroke:#181818;stroke-width:1.0;stroke-dasharray:7.0,7.0;"/><polygon fill="#181818" points="1280.76,100.11,1284.8824,109.0546,1284.5167,103.4096,1290.1617,103.0439,1280.76,100.11" style="stroke:#181818;stroke-width:1.0;"/></g><!--MD5=[63ff4aa245cae9ff81cf4afd17937837]
reverse link infrastructure.application.Kraken2Profile to infrastructure.application.Kraken2ProfileStandardisationService--><g id="link_infrastructure.application.Kraken2Profile_infrastructure.application.Kraken2ProfileStandardisationService"><path codeLine="23" d="M1233.12,103.61 C1199.25,133.21 1139.68,185.25 1101.3,218.78 " fill="none" id="infrastructure.application.Kraken2Profile-backto-infrastructure.application.Kraken2ProfileStandardisationService" style="stroke:#181818;stroke-width:1.0;stroke-dasharray:7.0,7.0;"/><polygon fill="#181818" points="1237.12,100.11,1227.712,103.0237,1233.3562,103.4015,1232.9784,109.0457,1237.12,100.11" style="stroke:#181818;stroke-width:1.0;"/></g><!--MD5=[bdcebefc4abbf7c77fbad4a99a67bdd2]
reverse link domain.StandardProfile to application.ProfileStandardisationService--><g id="link_domain.StandardProfile_application.ProfileStandardisationService"><path codeLine="25" d="M320.13,104.34 C301.2,134.05 268.4,185.52 247.21,218.78 " fill="none" id="domain.StandardProfile-backto-application.ProfileStandardisationService" style="stroke:#181818;stroke-width:1.0;stroke-dasharray:7.0,7.0;"/><polygon fill="#181818" points="322.82,100.11,314.6099,105.5501,320.1328,104.3265,321.3564,109.8495,322.82,100.11" style="stroke:#181818;stroke-width:1.0;"/></g><!--MD5=[43c66a469d8cde9e9d92af4a5a3220c3]
reverse link domain.StandardProfile to infrastructure.application.Kraken2ProfileStandardisationService--><g id="link_domain.StandardProfile_infrastructure.application.Kraken2ProfileStandardisationService"><path codeLine="26" d="M396.07,101.58 C447.01,117.72 521.85,139.05 589,149 C643.11,157.01 781.5,145.63 835,157 C894.87,169.72 959.09,197.1 1004.41,218.96 " fill="none" id="domain.StandardProfile-backto-infrastructure.application.Kraken2ProfileStandardisationService" style="stroke:#181818;stroke-width:1.0;stroke-dasharray:7.0,7.0;"/><polygon fill="#181818" points="391.21,100.04,398.5727,106.5814,395.9744,101.5566,400.9993,98.9583,391.21,100.04" style="stroke:#181818;stroke-width:1.0;"/></g><!--MD5=[0b9934a24f0e38a4cf8640938e31b7a0]
@startuml "taxpasta_profiler_support_overview"

abstract class application.ProfileReader <<Service>> {
    + {static} {abstract} read(profile: pathlib.Path) -> pandas.DataFrame
}
class infrastructure.application.Kraken2ProfileReader <<Service>> {
    + {static} read(profile: pathlib.Path) -> Kraken2Profile
}
application.ProfileReader <|. infrastructure.application.Kraken2ProfileReader : realizes


abstract class application.ProfileStandardisationService <<Service>> {
    + {static} {abstract} transform(profile: pandas.DataFrame) -> StandardProfile
}
class infrastructure.application.Kraken2ProfileStandardisationService <<Service>> {
    + {static} transform(profile: Kraken2Profile) -> StandardProfile
}
application.ProfileStandardisationService <|. infrastructure.application.Kraken2ProfileStandardisationService : realizes

class domain.StandardProfile <<SchemaModel>>
class infrastructure.application.Kraken2Profile <<SchemaModel>>

infrastructure.application.Kraken2Profile <.. infrastructure.application.Kraken2ProfileReader
infrastructure.application.Kraken2Profile <.. infrastructure.application.Kraken2ProfileStandardisationService

domain.StandardProfile <.. application.ProfileStandardisationService
domain.StandardProfile <.. infrastructure.application.Kraken2ProfileStandardisationService

hide empty members

@enduml

PlantUML version 1.2022.5(Sat Apr 30 12:55:52 CEST 2022)
(GPL source distribution)
Java Runtime: OpenJDK Runtime Environment
JVM: OpenJDK 64-Bit Server VM
Default Encoding: UTF-8
Language: en
Country: US
--></g></svg>